<svg width="125" height="97" viewBox="0 0 125 97" fill="none" xmlns="http://www.w3.org/2000/svg">
<g clip-path="url(#clip0_35_8)">
<path opacity="0.24" d="M54.197 0.0273803C51.3011 -0.0765424 48.3503 0.0820769 45.5987 0.973624C42.4927 1.97456 39.7521 3.86158 37.3166 6.01479C30.792 11.7688 26.1238 19.5375 18.9799 24.5021C14.3958 27.6891 8.84327 29.6873 5.25853 33.9591C1.47829 38.4715 0.584844 44.674 0.14269 50.5356C-0.0400187 52.8639 -0.162433 55.2504 0.495317 57.4912C1.24259 60.0437 2.94361 62.1877 4.72867 64.1532C8.81319 68.652 13.5181 72.5483 18.7022 75.725C21.1048 77.1964 23.6152 78.5182 25.8151 80.2739C31.2251 84.5895 34.5851 91.3754 40.7314 94.5515C44.3855 96.433 48.6006 96.8122 52.7043 96.9471C59.2489 97.1605 65.9689 96.8068 72.0184 94.3035C82.7287 89.8731 90.3258 79.1709 101.599 76.4671C104.59 75.7506 107.738 75.6375 110.606 74.529C113.276 73.4971 115.561 71.6502 117.5 69.548C122.028 64.64 124.847 58.122 124.991 51.4527C125.135 44.7834 122.535 38.0357 117.717 33.4121C112.329 28.2433 104.619 25.906 99.5379 20.4363C96.6712 17.3497 94.7035 13.3258 91.1333 11.0778C86.1454 7.92915 80.0575 8.91004 74.9929 5.79053C68.8411 2.00556 61.3975 0.288099 54.197 0.0273803Z" fill="#EC6608"/>
<path d="M33.0721 19.3442H43.8117V45.6075H33.0721V19.3442Z" fill="#EC6608"/>
<path d="M51.6024 26.8813V37.5981H25.2832V26.8813H51.6024Z" fill="#EC6608"/>
<path d="M30.0044 56.6798H31.3034V80.5875H30.0044V56.6798Z" fill="#EC6608"/>
<path d="M85.3577 56.6798H86.6568V80.5875H85.3577V56.6798Z" fill="#EC6608"/>
<path d="M69.5425 51.1427H27.8777C26.6395 51.1427 25.6358 52.1443 25.6358 53.3798V53.3816C25.6358 54.6171 26.6395 55.6187 27.8777 55.6187H69.5425C70.7806 55.6187 71.7843 54.6171 71.7843 53.3816V53.3798C71.7843 52.1443 70.7806 51.1427 69.5425 51.1427Z" fill="#EC6608"/>
<path d="M69.5425 51.1427H27.8777C26.6395 51.1427 25.6358 52.1443 25.6358 53.3798V53.3816C25.6358 54.6171 26.6395 55.6187 27.8777 55.6187H69.5425C70.7806 55.6187 71.7843 54.6171 71.7843 53.3816V53.3798C71.7843 52.1443 70.7806 51.1427 69.5425 51.1427Z" fill="url(#paint0_linear_35_8)"/>
<path d="M90.1959 55.6187H25.0457C24.5896 55.6187 24.2198 55.9877 24.2198 56.4428C24.2198 56.8979 24.5896 57.2669 25.0457 57.2669H90.1959C90.652 57.2669 91.0217 56.8979 91.0217 56.4428C91.0217 55.9877 90.652 55.6187 90.1959 55.6187Z" fill="#EC6608"/>
<path d="M90.1959 55.6187H25.0457C24.5896 55.6187 24.2198 55.9877 24.2198 56.4428C24.2198 56.8979 24.5896 57.2669 25.0457 57.2669H90.1959C90.652 57.2669 91.0217 56.8979 91.0217 56.4428C91.0217 55.9877 90.652 55.6187 90.1959 55.6187Z" fill="url(#paint1_linear_35_8)"/>
<path d="M56.5994 22.5148C56.584 22.6561 56.5992 22.799 56.6439 22.934C56.6887 23.0689 56.762 23.1927 56.8589 23.2969C56.9038 23.3494 56.9609 23.39 57.0251 23.4154C57.3613 23.5248 57.3814 22.8411 57.2828 22.646C57.1841 22.451 56.6488 22.0754 56.5994 22.5148Z" fill="url(#paint2_linear_35_8)"/>
<path d="M62.6251 22.1319C62.6401 22.2732 62.6247 22.416 62.58 22.5509C62.5352 22.6858 62.4622 22.8096 62.3657 22.914C62.3205 22.967 62.2627 23.0077 62.1976 23.0326C61.8633 23.1419 61.8432 22.4582 61.94 22.2632C62.0368 22.0681 62.5758 21.6925 62.6251 22.1319Z" fill="url(#paint3_linear_35_8)"/>
<path opacity="0.24" d="M68.0224 83.408C68.3348 83.1637 68.5065 82.7881 68.7532 82.4745C69.738 81.1819 71.6053 81.1071 73.182 80.7078C74.5686 80.3541 75.8504 79.6746 76.9203 78.726C73.9969 78.376 71.0316 78.5437 68.0881 78.7078L48.1747 79.8309C47.0575 79.8691 45.9447 79.991 44.8458 80.1955C44.548 80.2575 44.2246 80.3523 44.0601 80.6076C43.8774 80.8975 43.9724 81.3022 44.2008 81.5629C44.4468 81.8088 44.7454 81.9958 45.0742 82.1099C48.2259 83.4481 51.712 84.2977 55.0811 83.6815C55.315 83.6396 55.5799 83.563 55.6749 83.346C55.7699 83.1291 55.6347 82.8538 55.6749 82.6167C55.7553 82.1591 56.3564 82.0552 56.8205 82.0588L61.2567 82.0807C61.5172 82.0563 61.7792 82.1096 62.0094 82.2339C62.4644 82.5438 62.4022 83.2968 62.8426 83.6268C63.0624 83.7605 63.316 83.8288 63.5734 83.8237C64.7409 83.8857 67.0229 84.1883 68.0224 83.408Z" fill="#EC6608"/>
<path d="M62.5776 27.7054C62.5776 27.7054 66.5972 33.0656 68.4243 35.7148C70.2514 38.3639 72.2064 28.7082 72.2064 28.7082L75.0895 30.4949C75.0895 30.4949 72.7289 43.9028 67.5364 39.9574C62.3438 36.0119 62.5776 27.7054 62.5776 27.7054Z" fill="#EC6608"/>
<path d="M62.5776 27.7054C62.5776 27.7054 66.5972 33.0656 68.4243 35.7148C70.2514 38.3639 72.2064 28.7082 72.2064 28.7082L75.0895 30.4949C75.0895 30.4949 72.7289 43.9028 67.5364 39.9574C62.3438 36.0119 62.5776 27.7054 62.5776 27.7054Z" fill="url(#paint4_linear_35_8)"/>
<path d="M58.0812 26.5623C56.5793 27.2916 55.441 28.5678 54.3466 29.8313C54.1474 30.0943 53.9981 30.3915 53.9063 30.7082C52.6639 34.0265 52.8429 36.1779 52.4446 38.8762C52.1231 41.0914 51.4324 43.3467 51.9495 45.5254C51.9495 45.5254 52.0682 54.4409 52.5415 55.8539L67.2933 55.502C67.2933 55.502 66.1715 41.0987 66.0747 39.3265C65.6015 30.7684 63.8712 28.8832 62.5722 27.7054C61.2731 26.5276 58.0812 26.5623 58.0812 26.5623Z" fill="#EC6608"/>
<path d="M58.0812 26.5623C56.5793 27.2916 55.441 28.5678 54.3466 29.8313C54.1474 30.0943 53.9981 30.3915 53.9063 30.7083C52.6639 34.0265 52.8429 36.1779 52.4446 38.8762C52.1231 41.0914 51.4324 43.3467 51.9495 45.5254C51.9495 45.5254 52.0682 54.4409 52.5415 55.8539L67.2933 55.502C67.2933 55.502 66.1222 41.8006 66.113 40.034C66.0747 32.5752 64.2056 28.9434 62.5722 27.7054C61.1799 26.648 58.0812 26.5623 58.0812 26.5623Z" fill="url(#paint5_linear_35_8)"/>
<path d="M63.42 36.0247L65.6125 35.95C65.6125 35.95 65.9212 38.9236 65.3621 39.1004C64.8031 39.2773 63.4729 39.1296 63.4729 39.1296L63.42 36.0247Z" fill="white"/>
<path d="M57.6811 27.5304C57.6811 27.5304 59.3912 29.1494 60.3358 28.0591C61.2804 26.9688 61.1617 27.3827 61.1617 27.3827L60.513 37.7458L57.6811 27.5304Z" fill="#606161"/>
<path d="M60.0508 16.8209C59.7321 16.432 59.2725 16.1844 58.7718 16.1317C58.2913 16.0807 57.7596 16.2484 57.4929 16.6531C57.3276 16.9645 57.2511 17.3151 57.2718 17.6668C57.2433 17.9939 57.2947 18.323 57.4216 18.6259C57.5786 18.9106 57.8337 19.1289 58.1397 19.2403C58.4947 19.3628 58.8767 19.3858 59.244 19.3067C59.6112 19.2276 59.9497 19.0495 60.2225 18.7918C60.778 18.2904 60.4692 17.335 60.0508 16.8209Z" fill="#606161"/>
<path d="M60.0508 16.8209C59.7321 16.432 59.2725 16.1844 58.7718 16.1317C58.2913 16.0807 57.7596 16.2484 57.4929 16.6531C57.3276 16.9645 57.2511 17.3151 57.2718 17.6668C57.2433 17.9939 57.2947 18.323 57.4216 18.6259C57.5786 18.9106 57.8337 19.1289 58.1397 19.2403C58.4947 19.3628 58.8767 19.3858 59.244 19.3067C59.6112 19.2276 59.9497 19.0495 60.2225 18.7918C60.778 18.2904 60.4692 17.335 60.0508 16.8209Z" fill="url(#paint6_linear_35_8)"/>
<path d="M58.3498 24.4273C58.3498 24.4273 58.3297 26.6662 57.8181 27.1366C57.3065 27.607 59.8644 29.8057 60.946 27.3535C60.946 27.3535 60.3157 26.2924 60.5331 24.5075C60.7505 22.7226 58.3498 24.4273 58.3498 24.4273Z" fill="url(#paint7_linear_35_8)"/>
<path d="M58.2712 24.9579V25.4483C58.2712 25.4483 59.5684 27.3135 60.0983 26.6863C60.6281 26.0591 60.4637 25.9205 60.4637 25.9205L60.524 24.5075L58.2712 24.9579Z" fill="url(#paint8_linear_35_8)"/>
<path d="M57.1092 21.2294C57.1092 21.2294 56.7438 24.6443 58.5708 25.3207C60.3979 25.9971 61.4942 25.0271 61.993 23.3771C62.4918 21.7271 61.728 18.4016 59.7804 18.7261C57.8327 19.0507 57.1092 21.2294 57.1092 21.2294Z" fill="url(#paint9_linear_35_8)"/>
<path d="M56.8168 22.3762C56.732 22.2587 56.6775 22.1222 56.6579 21.9787C56.5393 21.3376 56.5913 20.6765 56.8086 20.0617C57.026 19.4468 57.4011 18.8996 57.8966 18.4745C58.0965 18.2969 58.3293 18.16 58.5818 18.0716C58.8351 17.9994 59.0992 17.9723 59.362 17.9914C60.1884 18.0178 60.9852 18.3043 61.6385 18.81C61.9612 19.0647 62.2276 19.3833 62.421 19.7457C62.6143 20.1081 62.7305 20.5065 62.7622 20.9158C62.7834 21.1589 62.7432 21.4033 62.6452 21.6269C62.5954 21.7386 62.5198 21.8371 62.4245 21.9141C62.3292 21.9911 62.217 22.0445 62.0971 22.0699C61.6751 22.1428 61.5581 21.7527 61.2183 21.4938C60.7031 21.1018 60.5386 20.522 59.3675 20.6204C57.4636 20.7809 57.3303 23.0016 56.8168 22.3762Z" fill="#606161"/>
<path d="M56.3528 27.7364C56.3528 27.7364 49.9799 32.1522 49.7131 40.4843C49.5597 45.3121 55.0245 44.4953 55.1944 44.3713C55.3643 44.2474 55.9033 40.1324 55.9033 40.1324C55.9033 40.1324 53.9556 40.1324 53.7199 39.7787C53.4842 39.425 56.3528 27.7364 56.3528 27.7364Z" fill="#EC6608"/>
<path d="M56.3528 27.7364C56.3528 27.7364 49.9799 32.1522 49.7131 40.4843C49.5597 45.3121 55.0245 44.4953 55.1944 44.3713C55.3643 44.2474 55.9033 40.1324 55.9033 40.1324C55.9033 40.1324 53.9556 40.1324 53.7199 39.7787C53.4842 39.425 56.3528 27.7364 56.3528 27.7364Z" fill="url(#paint10_linear_35_8)"/>
<path d="M53.7272 55.7372L53.4915 78.8208L53.6688 82.0588L56.0275 82.1773L59.5684 57.0918L62.5046 82.2211L65.0278 82.2065L65.353 55.502L53.7272 55.7372Z" fill="#606161"/>
<path d="M53.7272 55.7372L53.4915 78.8208L53.6688 82.0588L56.0275 82.1773L59.6287 56.7965L62.5046 82.2211L65.0278 82.2065L65.353 55.502L53.7272 55.7372Z" fill="url(#paint11_linear_35_8)"/>
<path d="M72.8586 28.2032C72.8954 27.6329 72.9984 27.0688 73.1656 26.5222C73.3359 25.9723 73.6924 25.4986 74.1741 25.1821C74.3889 25.039 74.6503 24.983 74.905 25.0253C75.3526 25.1311 75.5737 25.6488 75.6011 26.1083C75.6285 26.5677 75.5372 27.0418 75.6687 27.483C75.7107 27.6252 75.7747 27.7601 75.8094 27.9041C75.9227 28.3928 75.6669 28.8905 75.3581 29.2861C75.1915 29.5131 74.9846 29.7077 74.7479 29.8604C74.4998 29.9981 74.2183 30.0644 73.9348 30.0518C73.6512 30.0393 73.3767 29.9484 73.1418 29.7893C72.5371 29.3591 72.7929 28.854 72.8586 28.2032Z" fill="url(#paint12_linear_35_8)"/>
<path d="M51.7211 83.944L55.8521 83.8857L56.0275 82.1774L53.6688 82.0588L51.7211 83.944Z" fill="#606161"/>
<path d="M66.8128 83.944L62.6818 83.8857L62.5046 82.1774L64.8652 82.0588L66.8128 83.944Z" fill="#606161"/>
<path d="M58.1378 26.6461C58.1378 26.6461 57.4691 27.215 58.1378 28.628C58.8066 30.0409 60.577 38.012 60.577 38.012L57.0361 32.1777L57.4308 29.9789L56.6762 29.401C56.6762 29.401 56.6762 27.3207 57.0708 26.8886C57.4655 26.4565 57.8857 26.4839 58.1378 26.6461Z" fill="#EC6608"/>
<path d="M60.6008 26.3818C60.6008 26.3818 61.6641 26.6461 61.8413 27.1475C62.0186 27.6489 62.7549 29.1202 62.7549 29.1202L62.2835 29.7656L63.0143 30.6189L60.5642 38.0102C60.5642 38.0102 61.1946 27.999 60.9388 27.3517C60.683 26.7045 60.6008 26.3818 60.6008 26.3818Z" fill="#EC6608"/>
<path d="M58.1378 26.6461C58.1378 26.6461 57.4691 27.215 58.1378 28.628C58.8066 30.0409 60.577 38.012 60.577 38.012L57.0361 32.1777L57.4308 29.9789L56.6762 29.401C56.6762 29.401 56.6762 27.3207 57.0708 26.8886C57.4655 26.4565 57.8857 26.4839 58.1378 26.6461Z" fill="url(#paint13_linear_35_8)"/>
<path d="M60.6008 26.3818C60.6008 26.3818 61.6641 26.6461 61.8413 27.1475C62.0186 27.6489 62.7549 29.1202 62.7549 29.1202L62.2835 29.7656L63.0143 30.6189L60.5642 38.0102C60.5642 38.0102 61.1946 27.999 60.9388 27.3517C60.683 26.7045 60.6008 26.3818 60.6008 26.3818Z" fill="url(#paint14_linear_35_8)"/>
<path d="M60.133 31.7238C59.9749 31.7128 59.8223 31.661 59.6903 31.5734C59.5584 31.4858 59.4515 31.3655 59.3802 31.2242C59.3327 31.144 59.2322 30.9872 59.1025 30.7812C58.5379 29.8933 57.3631 28.0464 57.1676 27.3918C56.9575 26.6954 57.555 26.2833 57.8985 26.163L57.9679 26.3617C57.935 26.3727 57.1603 26.6534 57.3631 27.3317C57.5458 27.9552 58.7152 29.7894 59.2761 30.67C59.4076 30.8778 59.5081 31.0346 59.5556 31.1167C59.7383 31.4138 59.9704 31.5579 60.2097 31.5159C60.4491 31.474 60.9954 31.1823 61.3297 29.3445C61.8029 26.7519 61.0155 26.3362 60.7542 26.1976L60.8529 26.0153C61.1452 26.1703 62.0368 26.6389 61.5362 29.3846C61.1927 31.2789 60.5806 31.6636 60.2481 31.7238C60.2098 31.7272 60.1713 31.7272 60.133 31.7238Z" fill="#EC6608"/>
<path d="M58.9527 42.6284C58.6326 42.6255 58.3184 42.5421 58.0392 42.3859C57.7423 42.2354 57.4936 42.0051 57.3212 41.7209C57.1488 41.4367 57.0595 41.11 57.0635 40.7778C57.1001 40.1142 57.5806 39.5581 58.4174 39.2117C61.1416 38.0776 60.1915 31.6727 60.1823 31.6089L60.3888 31.5779C60.4308 31.8459 61.3718 38.2071 58.4959 39.4031C57.7395 39.7185 57.3047 40.2108 57.2736 40.7887C57.2744 41.0811 57.3556 41.3676 57.5083 41.6171C57.661 41.8665 57.8794 42.0694 58.1397 42.2036C58.4382 42.366 58.7777 42.4378 59.1166 42.4103C59.4555 42.3828 59.7789 42.257 60.0471 42.0486C62.0405 40.6283 64.2494 36.1195 64.2494 35.5379H64.4596C64.4596 36.1505 62.2579 40.7268 60.1659 42.22C59.815 42.4807 59.3902 42.6237 58.9527 42.6284Z" fill="#EC6608"/>
<path d="M60.133 31.7238C59.9749 31.7128 59.8223 31.661 59.6903 31.5734C59.5584 31.4858 59.4515 31.3655 59.3802 31.2242C59.3327 31.144 59.2322 30.9872 59.1025 30.7812C58.5379 29.8933 57.3631 28.0464 57.1676 27.3918C56.9575 26.6954 57.555 26.2833 57.8985 26.163L57.9679 26.3617C57.935 26.3727 57.1603 26.6534 57.3631 27.3317C57.5458 27.9552 58.7152 29.7894 59.2761 30.67C59.4076 30.8778 59.5081 31.0346 59.5556 31.1167C59.7383 31.4138 59.9704 31.5579 60.2097 31.5159C60.4491 31.474 60.9954 31.1823 61.3297 29.3445C61.8029 26.7519 61.0155 26.3362 60.7542 26.1976L60.8529 26.0153C61.1452 26.1703 62.0368 26.6389 61.5362 29.3846C61.1927 31.2789 60.5806 31.6636 60.2481 31.7238C60.2098 31.7272 60.1713 31.7272 60.133 31.7238Z" fill="url(#paint15_linear_35_8)"/>
<path d="M58.9527 42.6284C58.6326 42.6255 58.3184 42.5421 58.0392 42.3859C57.7423 42.2354 57.4936 42.0051 57.3212 41.7209C57.1488 41.4367 57.0595 41.11 57.0635 40.7778C57.1001 40.1142 57.5806 39.5581 58.4174 39.2117C61.1416 38.0776 60.1915 31.6727 60.1823 31.6089L60.3888 31.5779C60.4308 31.8459 61.3718 38.2071 58.4959 39.4031C57.7395 39.7185 57.3047 40.2108 57.2736 40.7887C57.2744 41.0811 57.3556 41.3676 57.5083 41.6171C57.661 41.8665 57.8794 42.0694 58.1397 42.2036C58.4382 42.366 58.7777 42.4378 59.1166 42.4103C59.4555 42.3828 59.7789 42.257 60.0471 42.0486C62.0405 40.6283 64.2494 36.1195 64.2494 35.5379H64.4596C64.4596 36.1505 62.2579 40.7268 60.1659 42.22C59.815 42.4807 59.3902 42.6237 58.9527 42.6284Z" fill="url(#paint16_linear_35_8)"/>
<path d="M58.094 40.3074L59.0075 37.3502C59.0818 37.1089 59.2407 36.9024 59.4551 36.7685C59.6695 36.6346 59.9251 36.5822 60.175 36.6209L63.7689 37.1679C63.9202 37.1916 64.0645 37.2479 64.1917 37.3329C64.319 37.4178 64.4263 37.5294 64.506 37.6598C64.5858 37.7902 64.6362 37.9364 64.6537 38.0882C64.6713 38.24 64.6555 38.3938 64.6076 38.5389L62.2945 45.5109C62.2115 45.761 62.0374 45.9709 61.8065 46.0989C61.5757 46.2269 61.3051 46.2637 61.0484 46.2018L57.6628 45.3942C57.522 45.3606 57.3896 45.2984 57.274 45.2115C57.1583 45.1246 57.0618 45.0149 56.9905 44.8892C56.9192 44.7635 56.8746 44.6244 56.8595 44.4808C56.8444 44.3371 56.8591 44.1919 56.9027 44.0541L58.094 40.3074Z" fill="#EC6608"/>
<path d="M58.094 40.3074L59.0075 37.3502C59.0818 37.1089 59.2407 36.9024 59.4551 36.7685C59.6695 36.6346 59.9251 36.5822 60.175 36.6209L63.7689 37.1679C63.9202 37.1916 64.0645 37.2479 64.1917 37.3329C64.319 37.4178 64.4263 37.5294 64.506 37.6598C64.5858 37.7902 64.6362 37.9364 64.6537 38.0882C64.6713 38.24 64.6555 38.3938 64.6076 38.5389L62.2945 45.5109C62.2115 45.761 62.0374 45.9709 61.8065 46.0989C61.5757 46.2269 61.3051 46.2637 61.0484 46.2018L57.6628 45.3942C57.522 45.3606 57.3896 45.2984 57.274 45.2115C57.1583 45.1246 57.0618 45.0149 56.9905 44.8892C56.9192 44.7635 56.8746 44.6244 56.8595 44.4808C56.8444 44.3371 56.8591 44.1919 56.9027 44.0541L58.094 40.3074Z" fill="url(#paint17_linear_35_8)"/>
<path d="M58.2712 40.4843L59.1848 37.527C59.259 37.2858 59.4179 37.0793 59.6323 36.9453C59.8467 36.8114 60.1023 36.759 60.3523 36.7978L63.9461 37.3447C64.0974 37.3685 64.2417 37.4248 64.3689 37.5097C64.4962 37.5947 64.6035 37.7062 64.6833 37.8367C64.763 37.9671 64.8134 38.1133 64.831 38.2651C64.8485 38.4169 64.8327 38.5707 64.7848 38.7158L62.4717 45.6877C62.3884 45.9376 62.2141 46.1473 61.9834 46.2752C61.7527 46.4032 61.4823 46.4401 61.2256 46.3787L57.84 45.571C57.6992 45.5374 57.5669 45.4752 57.4512 45.3884C57.3355 45.3015 57.239 45.1918 57.1677 45.066C57.0964 44.9403 57.0518 44.8013 57.0367 44.6576C57.0216 44.5139 57.0363 44.3687 57.0799 44.231L58.2712 40.4843Z" fill="#EC6608"/>
<path d="M59.1756 40.012C59.4232 39.9899 59.6727 40.0223 59.9065 40.1068C60.0231 40.1499 60.1262 40.2233 60.2049 40.3195C60.2836 40.4157 60.3351 40.5311 60.3541 40.6538C60.3778 40.9473 60.1568 41.2008 59.9101 41.363C59.6635 41.5253 59.3766 41.6165 59.1427 41.7951C58.8541 42.0176 58.6713 42.3421 58.421 42.6119C58.1253 42.9133 57.7475 43.1214 57.3344 43.2105C56.9213 43.2996 56.491 43.2658 56.097 43.1133C55.8198 43.0214 55.5874 42.8288 55.4459 42.5738C55.3045 42.3188 55.2642 42.02 55.3333 41.7368C55.3735 41.467 55.4794 40.9346 55.6987 40.7468C55.9179 40.559 56.5464 40.4897 56.8296 40.4113C57.5934 40.1875 58.3807 40.0535 59.1756 40.012Z" fill="url(#paint18_linear_35_8)"/>
<path d="M62.2853 22.3762C62.3071 22.3552 62.3251 22.3305 62.3383 22.3033C62.3454 22.2709 62.3496 22.2379 62.3511 22.2048C62.3557 22.1723 62.3719 22.1425 62.3968 22.1209C62.409 22.1102 62.424 22.1028 62.44 22.0996C62.456 22.0964 62.4726 22.0975 62.4881 22.1027C62.5017 22.109 62.5137 22.1182 62.5235 22.1295C62.5332 22.1408 62.5405 22.154 62.5448 22.1683C62.5527 22.1962 62.557 22.225 62.5575 22.254C62.569 22.367 62.552 22.4811 62.5082 22.5859C62.4656 22.6549 62.4119 22.7165 62.3493 22.7682C62.3389 22.7815 62.326 22.7925 62.3112 22.8007C62.2964 22.8088 62.2802 22.8139 62.2634 22.8156C62.241 22.8142 62.2195 22.8066 62.2013 22.7937C62.192 22.7904 62.1843 22.7839 62.1793 22.7755C62.1777 22.7677 62.1777 22.7596 62.1793 22.7518C62.1647 22.6747 62.1647 22.5955 62.1793 22.5184C62.1998 22.4616 62.2366 22.4121 62.2853 22.3762Z" fill="url(#paint19_linear_35_8)"/>
<path d="M56.9831 22.7445C56.9602 22.724 56.9415 22.6992 56.9283 22.6716C56.9212 22.6392 56.917 22.6062 56.9155 22.5731C56.9112 22.5405 56.8949 22.5106 56.8698 22.4892C56.8576 22.4783 56.8427 22.4708 56.8267 22.4676C56.8106 22.4644 56.7939 22.4656 56.7785 22.471C56.7651 22.4772 56.7532 22.4864 56.7437 22.4977C56.7342 22.509 56.7274 22.5223 56.7237 22.5366C56.714 22.5641 56.7096 22.5932 56.7109 22.6223C56.6993 22.7347 56.7163 22.8482 56.7602 22.9523C56.8019 23.0215 56.855 23.0832 56.9173 23.1346C56.9394 23.161 56.9708 23.178 57.005 23.182C57.0272 23.1801 57.0486 23.1725 57.0672 23.1602C57.0757 23.1557 57.0831 23.1495 57.0891 23.1419C57.0908 23.1341 57.0908 23.126 57.0891 23.1182C57.1038 23.0411 57.1038 22.962 57.0891 22.8849C57.0679 22.8289 57.0311 22.7802 56.9831 22.7445Z" fill="url(#paint20_linear_35_8)"/>
<path d="M64.0082 35.5835C64.0461 35.8129 64.1671 36.0205 64.3481 36.1669C64.398 36.2179 64.4613 36.2539 64.5308 36.2708C64.6087 36.2774 64.6864 36.2561 64.75 36.2107C64.8707 36.1358 64.9653 36.0255 65.0209 35.895C65.0765 35.7645 65.0904 35.6201 65.0606 35.4814C64.909 34.9271 63.9498 34.9217 64.0082 35.5835Z" fill="#EC6608"/>
<path d="M64.1855 35.3246C64.2129 35.6309 64.613 36.4185 65.1648 36.1596C65.3319 36.0681 65.4633 35.9234 65.5382 35.7485C65.6131 35.5737 65.627 35.3788 65.5777 35.1951C65.3841 34.4531 64.1069 34.4458 64.1855 35.3246Z" fill="#EC6608"/>
<path d="M64.1855 35.3246C64.2951 36.3438 65.0771 36.2143 65.1648 36.1596C65.3248 36.0608 65.4503 35.9152 65.5242 35.7426C65.5981 35.57 65.6168 35.3788 65.5777 35.1951C65.3841 34.4531 64.0905 34.4476 64.1855 35.3246Z" fill="url(#paint21_linear_35_8)"/>
<path d="M64.3956 35.3811C64.4668 36.0357 64.9693 35.9518 65.0241 35.9172C65.1269 35.854 65.2077 35.7608 65.2554 35.6502C65.3031 35.5396 65.3155 35.417 65.2909 35.2991C65.1648 34.8214 64.3353 34.8178 64.3956 35.3811Z" fill="url(#paint22_linear_35_8)"/>
<path d="M89.3337 42.685L73.1642 50.44C71.9009 51.0458 71.3691 52.5589 71.9762 53.8195C72.5834 55.0801 74.0996 55.6108 75.3629 55.005L91.5324 47.25C92.7957 46.6441 93.3276 45.1311 92.7204 43.8705C92.1133 42.6099 90.597 42.0792 89.3337 42.685Z" fill="#EC6608"/>
<path d="M89.3337 42.685L73.1642 50.44C71.9009 51.0458 71.3691 52.5589 71.9762 53.8195C72.5834 55.0801 74.0996 55.6108 75.3629 55.005L91.5324 47.25C92.7957 46.6441 93.3276 45.1311 92.7204 43.8705C92.1133 42.6099 90.597 42.0792 89.3337 42.685Z" fill="url(#paint23_linear_35_8)"/>
</g>
<defs>
<linearGradient id="paint0_linear_35_8" x1="48.6425" y1="55.048" x2="48.7898" y2="51.3961" gradientUnits="userSpaceOnUse">
<stop stop-color="white" stop-opacity="0"/>
<stop offset="0.95" stop-color="white"/>
</linearGradient>
<linearGradient id="paint1_linear_35_8" x1="57.6208" y1="61.154" x2="57.6208" y2="51.3798" gradientUnits="userSpaceOnUse">
<stop offset="0.12" stop-color="#010101" stop-opacity="0"/>
<stop offset="0.95" stop-color="#010101"/>
</linearGradient>
<linearGradient id="paint2_linear_35_8" x1="56.5939" y1="22.8648" x2="57.3339" y2="22.8648" gradientUnits="userSpaceOnUse">
<stop stop-color="#E5C6D6"/>
<stop offset="0.42" stop-color="#EAD4D0"/>
<stop offset="1" stop-color="#F0E9CB"/>
</linearGradient>
<linearGradient id="paint3_linear_35_8" x1="62.6306" y1="22.4819" x2="61.8888" y2="22.4819" gradientUnits="userSpaceOnUse">
<stop stop-color="#E5C6D6"/>
<stop offset="0.42" stop-color="#EAD4D0"/>
<stop offset="1" stop-color="#F0E9CB"/>
</linearGradient>
<linearGradient id="paint4_linear_35_8" x1="68.1192" y1="45.0405" x2="68.5886" y2="34.5332" gradientUnits="userSpaceOnUse">
<stop stop-color="white" stop-opacity="0"/>
<stop offset="0.95" stop-color="white"/>
</linearGradient>
<linearGradient id="paint5_linear_35_8" x1="47.4128" y1="42.5354" x2="65.3742" y2="40.7613" gradientUnits="userSpaceOnUse">
<stop stop-color="white" stop-opacity="0"/>
<stop offset="0.95" stop-color="white"/>
</linearGradient>
<linearGradient id="paint6_linear_35_8" x1="58.4832" y1="16.8865" x2="59.2022" y2="18.8019" gradientUnits="userSpaceOnUse">
<stop stop-color="#010101" stop-opacity="0"/>
<stop offset="0.95" stop-color="#010101"/>
</linearGradient>
<linearGradient id="paint7_linear_35_8" x1="57.7505" y1="26.0919" x2="60.946" y2="26.0919" gradientUnits="userSpaceOnUse">
<stop stop-color="#E5C6D6"/>
<stop offset="0.42" stop-color="#EAD4D0"/>
<stop offset="1" stop-color="#F0E9CB"/>
</linearGradient>
<linearGradient id="paint8_linear_35_8" x1="59.0313" y1="27.2259" x2="60.4997" y2="19.952" gradientUnits="userSpaceOnUse">
<stop offset="0.12" stop-color="#010101" stop-opacity="0"/>
<stop offset="0.95" stop-color="#010101"/>
</linearGradient>
<linearGradient id="paint9_linear_35_8" x1="57.0781" y1="22.121" x2="62.1373" y2="22.121" gradientUnits="userSpaceOnUse">
<stop stop-color="#E5C6D6"/>
<stop offset="0.42" stop-color="#EAD4D0"/>
<stop offset="1" stop-color="#F0E9CB"/>
</linearGradient>
<linearGradient id="paint10_linear_35_8" x1="46.3184" y1="35.1076" x2="55.4076" y2="36.1714" gradientUnits="userSpaceOnUse">
<stop offset="0.52" stop-color="white" stop-opacity="0.52"/>
<stop offset="0.95" stop-color="white"/>
</linearGradient>
<linearGradient id="paint11_linear_35_8" x1="58.3753" y1="79.0633" x2="61.7995" y2="44.441" gradientUnits="userSpaceOnUse">
<stop offset="0.12" stop-color="#010101" stop-opacity="0"/>
<stop offset="0.95" stop-color="#010101"/>
</linearGradient>
<linearGradient id="paint12_linear_35_8" x1="72.749" y1="27.5304" x2="75.8368" y2="27.5304" gradientUnits="userSpaceOnUse">
<stop stop-color="#E5C6D6"/>
<stop offset="0.42" stop-color="#EAD4D0"/>
<stop offset="1" stop-color="#F0E9CB"/>
</linearGradient>
<linearGradient id="paint13_linear_35_8" x1="56.8096" y1="33.0365" x2="59.4047" y2="32.169" gradientUnits="userSpaceOnUse">
<stop stop-color="white" stop-opacity="0"/>
<stop offset="0.95" stop-color="white"/>
</linearGradient>
<linearGradient id="paint14_linear_35_8" x1="63.7086" y1="31.9827" x2="60.8365" y2="32.1804" gradientUnits="userSpaceOnUse">
<stop stop-color="white" stop-opacity="0"/>
<stop offset="0.11" stop-color="white" stop-opacity="0.18"/>
<stop offset="0.29" stop-color="white" stop-opacity="0.42"/>
<stop offset="0.45" stop-color="white" stop-opacity="0.63"/>
<stop offset="0.6" stop-color="white" stop-opacity="0.79"/>
<stop offset="0.74" stop-color="white" stop-opacity="0.9"/>
<stop offset="0.86" stop-color="white" stop-opacity="0.98"/>
<stop offset="0.95" stop-color="white"/>
</linearGradient>
<linearGradient id="paint15_linear_35_8" x1="61.5855" y1="26.0955" x2="48.9268" y2="40.4909" gradientUnits="userSpaceOnUse">
<stop offset="0.12" stop-color="#010101" stop-opacity="0"/>
<stop offset="0.95" stop-color="#010101"/>
</linearGradient>
<linearGradient id="paint16_linear_35_8" x1="66.2172" y1="30.1686" x2="53.5585" y2="44.564" gradientUnits="userSpaceOnUse">
<stop offset="0.12" stop-color="#010101" stop-opacity="0"/>
<stop offset="0.95" stop-color="#010101"/>
</linearGradient>
<linearGradient id="paint17_linear_35_8" x1="56.0842" y1="37.1132" x2="67.2466" y2="47.148" gradientUnits="userSpaceOnUse">
<stop offset="0.12" stop-color="#010101" stop-opacity="0"/>
<stop offset="0.95" stop-color="#010101"/>
</linearGradient>
<linearGradient id="paint18_linear_35_8" x1="55.3205" y1="41.6365" x2="60.3614" y2="41.6365" gradientUnits="userSpaceOnUse">
<stop stop-color="#E5C6D6"/>
<stop offset="0.42" stop-color="#EAD4D0"/>
<stop offset="1" stop-color="#F0E9CB"/>
</linearGradient>
<linearGradient id="paint19_linear_35_8" x1="62.5996" y1="22.5093" x2="61.0998" y2="22.1981" gradientUnits="userSpaceOnUse">
<stop offset="0.12" stop-color="#010101" stop-opacity="0"/>
<stop offset="0.95" stop-color="#010101"/>
</linearGradient>
<linearGradient id="paint20_linear_35_8" x1="56.667" y1="22.8776" x2="58.1668" y2="22.5664" gradientUnits="userSpaceOnUse">
<stop offset="0.12" stop-color="#010101" stop-opacity="0"/>
<stop offset="0.95" stop-color="#010101"/>
</linearGradient>
<linearGradient id="paint21_linear_35_8" x1="65.607" y1="34.1596" x2="63.4559" y2="37.7334" gradientUnits="userSpaceOnUse">
<stop offset="0.12" stop-color="#010101" stop-opacity="0"/>
<stop offset="0.95" stop-color="#010101"/>
</linearGradient>
<linearGradient id="paint22_linear_35_8" x1="65.3091" y1="34.6336" x2="63.9285" y2="36.928" gradientUnits="userSpaceOnUse">
<stop offset="0.12" stop-color="#010101" stop-opacity="0"/>
<stop offset="0.95" stop-color="#010101"/>
</linearGradient>
<linearGradient id="paint23_linear_35_8" x1="83.0213" y1="50.157" x2="81.0219" y2="46.2665" gradientUnits="userSpaceOnUse">
<stop stop-color="white" stop-opacity="0"/>
<stop offset="0.95" stop-color="white"/>
</linearGradient>
<clipPath id="clip0_35_8">
<rect width="125" height="97" fill="white"/>
</clipPath>
</defs>
</svg>
