<svg width="94" height="114" viewBox="0 0 94 114" fill="none" xmlns="http://www.w3.org/2000/svg">
<path opacity="0.18" d="M88.9465 95.902C85.981 100.419 81.8274 104.055 77.2711 106.975L76.4201 107.512C73.0323 109.587 69.4318 111.328 65.5597 112.245C61.55 113.194 57.3767 113.227 53.2656 113.273C45.7046 113.338 38.1108 113.184 30.576 113.731C24.6221 114.166 19.4472 110.909 15.5194 106.569C15.3557 106.389 15.192 106.203 15.0382 106.019C11.5261 101.951 9.09738 97.0639 6.81598 92.1934C4.00432 86.197 1.31704 79.9812 0.78679 73.3858C0.351458 67.9752 1.38578 62.5581 1.46761 57.1312C1.56908 50.3917 0.200892 43.6391 0.963542 36.939C1.61818 31.0767 3.9094 25.4828 6.85526 20.3701C9.4738 15.8041 12.6553 11.4966 16.7501 8.19719C21.5465 4.40054 27.2961 1.99854 33.368 1.25479C47.2724 -0.535642 61.9232 6.63261 69.0325 18.7434C75.8276 30.301 75.7556 44.7782 81.7553 56.7679C85.5784 64.4074 91.8695 71.1142 93.038 79.5753C93.8235 85.2445 92.0986 91.1068 88.9465 95.902Z" fill="#EC6608"/>
<path opacity="0.54" d="M77.2678 106.975L76.4168 107.512C73.0323 109.587 69.4318 111.328 65.5597 112.245C61.55 113.194 57.3767 113.227 53.2656 113.273C45.7046 113.338 38.1108 113.184 30.576 113.731C24.6221 114.166 19.4472 110.909 15.5194 106.569C15.3557 106.389 15.192 106.203 15.0382 106.019C21.9872 103.839 32.7428 102.438 44.8241 102.438C58.5682 102.438 70.6135 104.255 77.2678 106.975Z" fill="#EC6608"/>
<path d="M49.3345 99.9607L49.6619 103.195C49.6619 103.195 48.4246 105.067 46.8077 105.188C45.1907 105.309 44.6408 104.533 44.6408 104.533L44.9059 99.7774" fill="#F7AD7E"/>
<path d="M44.6244 104.533L44.7325 102.625L49.4687 101.349L49.6455 103.195C49.6455 103.195 48.4082 105.067 46.7913 105.188C45.1743 105.309 44.6244 104.533 44.6244 104.533Z" fill="white"/>
<path d="M34.2321 99.2635L33.8851 103.61C33.8851 103.61 35.1551 105.535 36.8146 105.659C38.4741 105.784 39.0404 104.985 39.0404 104.985L38.7687 100.101" fill="#F7AD7E"/>
<path d="M39.0404 104.998L38.9324 103.034L34.0652 101.725L33.8851 103.617C33.8851 103.617 35.1551 105.541 36.8146 105.666C38.4741 105.79 39.0404 104.998 39.0404 104.998Z" fill="white"/>
<path d="M32.3402 57.8447C32.3402 57.8447 32.0489 62.5777 32.7755 76.6066C33.5022 90.6354 33.7182 99.3486 33.7182 99.3486C33.7182 99.3486 34.435 101.011 36.8506 101.044C39.2662 101.077 39.4299 100.062 39.4299 100.062L41.7899 64.0965L44.2546 100.799C44.2546 100.799 47.4165 101.368 49.6782 100.118C51.2821 99.2275 49.3214 57.8022 49.3214 57.8022C49.3214 57.8022 41.5706 62.0606 32.3402 57.8447Z" fill="#3F3D56"/>
<path d="M38.1796 27.7053C38.1796 27.7053 31.7576 30.8083 31.6103 31.8361C31.463 32.8638 32.3402 57.8546 32.3402 57.8546C32.3402 57.8546 34.422 60.5582 40.8079 60.5582C47.3543 60.5582 49.0334 58.6892 49.3182 57.8185C49.6029 56.9479 50.6536 32.0292 50.5096 30.9785C50.3656 29.9278 44.4411 27.7479 44.4411 27.7479L38.1796 27.7053Z" fill="#F3FCFF"/>
<path d="M45.4558 37.3514L44.883 37.2695C45.0925 35.7672 45.4886 32.7657 45.4886 32.1699C45.4886 31.5742 45.1842 28.9655 43.7669 27.6693C43.4629 27.3879 43.1016 27.1757 42.7077 27.0474C42.3139 26.9191 41.8968 26.8778 41.4855 26.9263C38.065 27.2274 37.2074 29.4892 37.1518 29.6463C36.9388 30.4934 36.777 31.3525 36.6673 32.219H36.0782C36.1886 31.3015 36.357 30.392 36.5822 29.4957V29.4761C36.6183 29.3615 37.5151 26.6841 41.4265 26.3404C41.9171 26.2836 42.4141 26.3334 42.8835 26.4865C43.353 26.6396 43.7839 26.8923 44.1466 27.2274C45.734 28.684 46.0581 31.4826 46.0581 32.1634C46.0646 32.9555 45.4787 37.1746 45.4558 37.3514Z" fill="#EC6608"/>
<path d="M45.4558 37.3514L44.883 37.2695C45.0925 35.7672 45.4886 32.7657 45.4886 32.1699C45.4886 31.5742 45.1842 28.9655 43.7669 27.6693C43.4629 27.3879 43.1016 27.1757 42.7077 27.0474C42.3139 26.9191 41.8968 26.8778 41.4855 26.9263C38.065 27.2274 37.2074 29.4892 37.1518 29.6463C36.9388 30.4934 36.777 31.3525 36.6673 32.219H36.0782C36.1886 31.3015 36.357 30.392 36.5822 29.4957V29.4761C36.6183 29.3615 37.5151 26.6841 41.4265 26.3404C41.9171 26.2836 42.4141 26.3334 42.8835 26.4865C43.353 26.6396 43.7839 26.8923 44.1466 27.2274C45.734 28.684 46.0581 31.4826 46.0581 32.1634C46.0646 32.9555 45.4787 37.1746 45.4558 37.3514Z" fill="url(#paint0_linear_24_525)"/>
<path d="M45.2169 58.7645L45.374 73.4709L52.0611 72.8064L49.4949 49.4752L45.2169 58.7645Z" fill="#F3FCFF"/>
<path d="M38.5658 27.6922L38.4872 60.9673C40.7409 61.6478 43.1699 61.4369 45.2725 60.3782L43.541 27.6922L41.0338 28.2814L38.5658 27.6922Z" fill="#EC6608"/>
<path d="M38.5658 27.6922L38.4872 60.9673C40.7409 61.6478 43.1699 61.4369 45.2725 60.3782L43.541 27.6922L41.0338 28.2814L38.5658 27.6922Z" fill="#EC6608"/>
<path d="M38.6083 23.9346C38.6083 23.9346 38.5691 26.1768 38.5887 27.8166C38.6083 29.0408 38.9651 31.3877 41.1778 31.3877C43.3905 31.3877 43.649 28.396 43.6098 27.8166C43.6726 26.9449 43.6726 26.0698 43.6098 25.1981C43.4657 23.7841 38.7327 22.9429 38.6083 23.9346Z" fill="#F7AD7E"/>
<path d="M38.6214 26.5106C38.6214 26.5106 38.8767 29.3485 40.6835 28.9819C41.4057 28.854 42.0704 28.505 42.5857 27.9832C43.1011 27.4614 43.4418 26.7924 43.5607 26.0687C43.6293 25.757 43.6143 25.4326 43.5172 25.1285C43.42 24.8244 43.2442 24.5514 43.0075 24.3372L38.6214 26.5106Z" fill="url(#paint1_linear_24_525)"/>
<path d="M44.7717 24.1081C44.0746 26.1571 42.2023 27.4271 40.8897 27.5482C39.5772 27.6693 38.1436 26.4713 37.5675 24.9788C36.9914 23.4862 36.9128 17.7549 36.9128 17.7549C36.8949 17.3737 36.9702 16.994 37.1321 16.6485C37.3154 16.2328 37.6493 14.9792 38.1141 14.6159C40.1992 14.0721 42.3946 14.1197 44.4542 14.7534C44.8896 15.133 45.1089 16.3441 45.2071 16.5667C45.2521 16.7026 45.2817 16.8431 45.2954 16.9857C45.4624 18.3702 45.3838 22.3144 44.7717 24.1081Z" fill="#F7AD7E"/>
<path d="M36.8539 19.2867C36.7179 19.1994 36.5544 19.1654 36.3949 19.1914C36.2353 19.2174 36.0911 19.3015 35.9898 19.4275C35.9081 19.5938 35.8752 19.78 35.8949 19.9643C35.897 20.1506 35.9123 20.3365 35.9407 20.5207C36.0498 21.0159 36.2972 21.4699 36.6543 21.83C36.7372 21.9264 36.8356 22.0083 36.9456 22.0722C37.0013 22.1037 37.063 22.1232 37.1267 22.1294C37.1904 22.1356 37.2547 22.1284 37.3154 22.1082C37.4105 22.0557 37.4905 21.9797 37.5478 21.8874C37.6051 21.7951 37.6378 21.6897 37.6428 21.5812C37.7177 21.1233 37.676 20.6539 37.5216 20.2163C37.4053 19.8425 37.171 19.5164 36.8539 19.2867Z" fill="#F7AD7E"/>
<path d="M45.5377 19.2147C45.6733 19.127 45.8365 19.0925 45.9961 19.1179C46.1556 19.1433 46.3001 19.2267 46.4018 19.3522C46.486 19.5189 46.5191 19.7068 46.4967 19.8923C46.498 20.0776 46.4826 20.2628 46.4509 20.4454C46.342 20.9407 46.0945 21.3948 45.7373 21.7547C45.6543 21.851 45.5558 21.9329 45.446 21.9969C45.3903 22.0284 45.3286 22.0479 45.2649 22.0541C45.2012 22.0603 45.1369 22.0531 45.0761 22.0329C44.9809 21.9807 44.9007 21.9047 44.8433 21.8124C44.786 21.7201 44.7534 21.6145 44.7488 21.5059C44.6729 21.0472 44.7134 20.5767 44.8667 20.1377C44.9837 19.7651 45.2193 19.441 45.5377 19.2147Z" fill="#F7AD7E"/>
<path d="M38.4709 58.7645L38.2516 73.4709L28.7397 72.8064L32.3893 49.4752L38.4709 58.7645Z" fill="#F3FCFF"/>
<path d="M31.8754 45.0171L34.6773 38.8963L33.2763 72.9373L28.7397 72.826C28.7397 72.826 32.2977 54.7647 31.8754 45.0171Z" fill="url(#paint2_linear_24_525)"/>
<path d="M50.0285 44.2742L47.2266 38.1566L47.135 73.2483L52.0611 72.8064C52.0611 72.8064 49.6062 54.0282 50.0285 44.2742Z" fill="url(#paint3_linear_24_525)"/>
<path d="M31.7445 31.5873C31.7445 31.5873 26.9591 43.2333 26.4158 45.2561C25.8724 47.2789 27.5614 53.3834 28.2258 52.336C30.265 49.1152 32.2584 44.0843 32.2584 44.0843L31.7445 31.5873Z" fill="#F3FCFF"/>
<path d="M50.1005 30.2878C50.1005 30.2878 54.8826 41.9371 55.4292 43.9566C55.9758 45.9762 54.2803 52.0839 53.6191 51.0365C51.5767 47.8157 49.5866 42.7848 49.5866 42.7848L50.1005 30.2878Z" fill="#F3FCFF"/>
<path d="M51.0791 46.1595C50.9449 46.297 47.135 57.6974 47.135 57.6974C47.135 57.6974 49.5964 57.6974 51.4097 57.8447C51.4097 57.8447 55.151 49.1283 55.3048 48.3525C55.4586 47.5768 56.5944 43.3576 54.0643 42.8503C51.5341 42.343 51.0791 46.1595 51.0791 46.1595Z" fill="#F3FCFF"/>
<path d="M30.7658 47.4589C30.8967 47.5964 34.6936 58.9969 34.6936 58.9969C34.6936 58.9969 32.2289 58.9969 30.4156 59.1442C30.4156 59.1442 26.6776 50.4277 26.5205 49.652C26.3634 48.8762 25.2341 44.6571 27.761 44.1497C30.2879 43.6424 30.7658 47.4589 30.7658 47.4589Z" fill="#F3FCFF"/>
<path d="M45.3478 19.4307C45.3478 19.3391 45.3151 19.2475 45.2954 19.1558C45.1763 18.6653 45.0131 18.1866 44.8077 17.7254C44.4804 16.9431 44.176 16.1641 43.8618 15.3818C43.8127 15.2574 43.7603 15.1363 43.7112 15.012V14.989C43.7141 14.994 43.7156 14.9997 43.7156 15.0054C43.7156 15.0112 43.7141 15.0168 43.7112 15.0218C43.6597 15.0759 43.5956 15.1164 43.5246 15.1396C43.0984 15.2997 42.6607 15.4278 42.2154 15.5226C41.6325 15.601 41.0398 15.5586 40.474 15.3982C39.9863 15.2574 39.4921 14.8418 38.9749 14.8647H38.8964C38.6321 14.8766 38.3799 14.9785 38.1817 15.1536C37.9834 15.3286 37.851 15.5663 37.8064 15.827C37.7028 17.0939 37.4298 18.3412 36.9947 19.5355C36.4382 19.1591 36.3793 18.4128 36.376 17.768C36.3728 17.1232 36.376 16.4325 36.376 15.7615C36.3523 15.4379 36.3889 15.1127 36.484 14.8025C36.5357 14.6418 36.6279 14.4971 36.7517 14.3825C36.8756 14.2678 37.0269 14.187 37.1911 14.1478C37.4595 14.102 37.7671 14.1904 37.9963 14.0431C38.0826 13.9646 38.1518 13.8691 38.1997 13.7627C38.2475 13.6563 38.273 13.5412 38.2745 13.4245C38.3161 12.9488 38.4921 12.4948 38.7818 12.1152C39.4168 11.3656 40.6279 11.3165 41.5869 11.6308C42.546 11.945 43.3741 12.5374 44.3135 12.9008C44.9681 13.1463 45.6817 13.3132 46.0908 13.8369C46.2764 14.1321 46.3875 14.4679 46.4149 14.8156C46.5553 15.6171 46.5333 16.4387 46.35 17.2315C46.1667 18.0243 45.8259 18.7722 45.3478 19.4307Z" fill="#3F3D56"/>
<path d="M45.554 18.8023C45.4943 18.9374 45.4061 19.058 45.2954 19.1558C45.1763 18.6653 45.0131 18.1865 44.8077 17.7254C44.4433 16.822 44.0778 15.9175 43.7112 15.0119C43.9249 14.8842 44.16 14.7966 44.4051 14.7534C44.5676 14.7239 44.7346 14.7299 44.8945 14.7712C45.0544 14.8124 45.2035 14.8879 45.3314 14.9923C45.5187 15.1833 45.6471 15.4242 45.7013 15.6862C45.7975 16.1158 45.8426 16.5553 45.8355 16.9955C45.8973 17.6119 45.8004 18.2339 45.554 18.8023Z" fill="url(#paint4_linear_24_525)"/>
<path d="M45.0205 14.6224C44.5931 14.8063 44.201 15.0633 43.8618 15.3818C43.8127 15.2574 43.7603 15.1363 43.7112 15.0119V14.989C43.7141 14.994 43.7156 14.9996 43.7156 15.0054C43.7156 15.0111 43.7141 15.0168 43.7112 15.0218C43.6597 15.0759 43.5956 15.1163 43.5247 15.1396C43.0984 15.2997 42.6607 15.4277 42.2154 15.5226C41.6326 15.6009 41.0398 15.5586 40.4741 15.3982C39.9864 15.2574 39.4921 14.8417 38.9749 14.8646H38.8964C38.9226 14.7861 38.9553 14.701 38.9848 14.6093C39.2335 13.8041 39.3972 13.1069 40.3202 12.8549C40.8673 12.7211 41.4434 12.7741 41.9568 13.0055C42.4511 13.215 42.906 13.5423 43.4363 13.6274C43.7557 13.6366 44.0735 13.676 44.3855 13.7452C44.5612 13.8197 44.7132 13.9408 44.8252 14.0954C44.9371 14.25 45.0046 14.4322 45.0205 14.6224Z" fill="url(#paint5_linear_24_525)"/>
<path d="M31.3124 59.0951L31.7543 60.9739L35.1257 60.8102L34.2419 58.9838L31.3124 59.0951Z" fill="#F7AD7E"/>
<path d="M47.7601 57.6582L46.7651 60.0901L49.9728 60.2767L50.3787 57.7695L47.7601 57.6582Z" fill="#F7AD7E"/>
<path d="M31.0637 60.7546H36.2615V61.6776H31.0637V60.7546Z" fill="#F3FCFF"/>
<path d="M45.8061 60.1065H50.5849V60.9739H45.8061V60.1065Z" fill="#F3FCFF"/>
<path d="M38.2025 38.749H36.7786V38.1598H37.7082C37.9504 36.5985 38.1534 33.1617 36.6673 32.5725C36.5201 32.507 36.3551 32.493 36.1989 32.5328C36.0427 32.5726 35.9044 32.6638 35.8065 32.7918C34.8049 33.8622 34.6413 37.0928 34.7984 37.4987C34.8719 37.5752 34.9613 37.6347 35.0602 37.6732C35.1591 37.7116 35.2653 37.728 35.3712 37.7212L35.4595 38.3039C35.2536 38.326 35.0454 38.299 34.8519 38.225C34.6584 38.1511 34.4853 38.0323 34.3467 37.8784C33.8982 37.3841 34.2321 33.9996 35.1617 32.6576C35.6232 32.003 36.2353 31.7673 36.8867 32.0259C39.2204 32.9522 38.2876 38.281 38.245 38.5068L38.2025 38.749Z" fill="#EC6608"/>
<path d="M38.2025 38.749H36.7786V38.1598H37.7082C37.9504 36.5985 38.1534 33.1617 36.6673 32.5725C36.5201 32.507 36.3551 32.493 36.1989 32.5328C36.0427 32.5726 35.9044 32.6638 35.8065 32.7918C34.8049 33.8622 34.6413 37.0928 34.7984 37.4987C34.8719 37.5752 34.9613 37.6347 35.0602 37.6732C35.1591 37.7116 35.2653 37.728 35.3712 37.7212L35.4595 38.3039C35.2536 38.326 35.0454 38.299 34.8519 38.225C34.6584 38.1511 34.4853 38.0323 34.3467 37.8784C33.8982 37.3841 34.2321 33.9996 35.1617 32.6576C35.6232 32.003 36.2353 31.7673 36.8867 32.0259C39.2204 32.9522 38.2876 38.281 38.245 38.5068L38.2025 38.749Z" fill="url(#paint6_linear_24_525)"/>
<path d="M35.6658 38.0671C35.6908 37.8062 35.5536 37.5795 35.3592 37.5609C35.1649 37.5422 34.987 37.7387 34.962 37.9996C34.937 38.2605 35.0742 38.4871 35.2686 38.5058C35.4629 38.5244 35.6407 38.328 35.6658 38.0671Z" fill="#EC6608"/>
<path d="M37.0644 38.4902C37.0894 38.2293 36.9521 38.0027 36.7578 37.984C36.5635 37.9654 36.3856 38.1618 36.3606 38.4227C36.3356 38.6836 36.4728 38.9103 36.6671 38.9289C36.8615 38.9475 37.0393 38.7511 37.0644 38.4902Z" fill="#EC6608"/>
<path d="M35.6658 38.0671C35.6908 37.8062 35.5536 37.5795 35.3592 37.5609C35.1649 37.5422 34.987 37.7387 34.962 37.9996C34.937 38.2605 35.0742 38.4871 35.2686 38.5058C35.4629 38.5244 35.6407 38.328 35.6658 38.0671Z" fill="url(#paint7_linear_24_525)"/>
<path d="M37.0644 38.4902C37.0894 38.2293 36.9521 38.0027 36.7578 37.984C36.5635 37.9654 36.3856 38.1618 36.3606 38.4227C36.3356 38.6836 36.4728 38.9103 36.6671 38.9289C36.8615 38.9475 37.0393 38.7511 37.0644 38.4902Z" fill="url(#paint8_linear_24_525)"/>
<path d="M45.2365 38.7785C45.8276 38.7785 46.3069 38.2993 46.3069 37.7081C46.3069 37.117 45.8276 36.6378 45.2365 36.6378C44.6454 36.6378 44.1662 37.117 44.1662 37.7081C44.1662 38.2993 44.6454 38.7785 45.2365 38.7785Z" fill="#EC6608"/>
<path d="M45.41 38.2253C45.8294 38.2253 46.1694 37.8853 46.1694 37.4659C46.1694 37.0465 45.8294 36.7065 45.41 36.7065C44.9906 36.7065 44.6506 37.0465 44.6506 37.4659C44.6506 37.8853 44.9906 38.2253 45.41 38.2253Z" fill="url(#paint9_linear_24_525)"/>
<path d="M45.4493 37.9078C45.706 37.9078 45.9141 37.6997 45.9141 37.443C45.9141 37.1863 45.706 36.9782 45.4493 36.9782C45.1926 36.9782 44.9845 37.1863 44.9845 37.443C44.9845 37.6997 45.1926 37.9078 45.4493 37.9078Z" fill="#F3FCFF"/>
<path d="M44.7357 37.8096L44.2644 38.1566C44.2644 38.1566 44.5262 38.6116 44.7914 38.6803L45.1187 38.1566C45.1187 38.1566 44.883 38.1566 44.7357 37.8096Z" fill="url(#paint10_linear_24_525)"/>
<path d="M54.1036 106.137C54.372 106.301 54.6829 106.54 54.6633 106.883C54.6461 107.033 54.5871 107.175 54.4931 107.293C53.8875 108.121 50.5653 107.862 49.616 107.852C47.459 107.829 47.5474 107.964 45.4198 107.561C45.2474 107.542 45.0828 107.479 44.9419 107.378C44.736 107.157 44.6193 106.868 44.6146 106.566C44.5393 105.859 44.5558 105.145 44.6637 104.442C44.6645 104.405 44.6728 104.369 44.688 104.336C44.7032 104.303 44.725 104.273 44.7521 104.249C44.7792 104.236 44.8088 104.229 44.8388 104.229C44.8688 104.229 44.8985 104.236 44.9256 104.249C45.2631 104.392 45.614 104.501 45.973 104.576C46.5623 104.64 47.1562 104.504 47.6587 104.19C47.9187 104.036 48.166 103.862 48.3984 103.669C48.5588 103.542 48.873 103.136 49.0694 103.116C49.2658 103.096 49.6324 103.424 49.819 103.535L50.706 104.072L54.1036 106.137Z" fill="#3F3D56"/>
<path d="M36.6543 104.527C35.8623 104.271 35.133 103.852 34.5136 103.296C34.3973 103.179 34.2474 103.101 34.0848 103.073C34.0041 103.074 33.9242 103.09 33.8491 103.119C32.3555 103.6 30.9356 104.285 29.63 105.155C29.2831 105.381 28.9001 105.715 28.9296 106.167C28.9623 106.69 29.5056 106.939 29.9606 107.054C32.5898 107.719 35.3225 107.871 38.0094 107.502C38.245 107.487 38.4719 107.407 38.664 107.27C38.8827 107.035 39.0144 106.732 39.0371 106.412C39.1517 105.715 39.2008 104.743 38.9029 104.101C38.5815 104.331 38.2139 104.489 37.8255 104.562C37.4372 104.636 37.0375 104.623 36.6543 104.527Z" fill="#3F3D56"/>
<path d="M38.6804 28.0785C38.6804 28.0785 39.9896 30.949 40.7064 31.3124L39.0699 32.3991L38.5854 29.6201L38.6804 28.0785Z" fill="#EC6608"/>
<path d="M43.5738 28.1079C43.5738 28.1079 42.4085 31.2502 40.7163 31.3124L42.4478 32.9031L43.6949 30.6119L43.5738 28.1079Z" fill="#EC6608"/>
<path d="M38.6804 28.0785C38.6804 28.0785 39.9896 30.949 40.7064 31.3124L39.0699 32.3991L38.5854 29.6201L38.6804 28.0785Z" fill="url(#paint11_linear_24_525)"/>
<path d="M43.5738 28.1079C43.5738 28.1079 42.4085 31.2502 40.7163 31.3124L42.4478 32.9031L43.6949 30.6119L43.5738 28.1079Z" fill="url(#paint12_linear_24_525)"/>
<path d="M39.7081 31.8852L40.2809 32.8507L39.8587 53.367L41.672 55.907L42.8798 51.6748L41.1876 32.8802L41.672 32.1568L40.7064 31.3091L39.7081 31.8852Z" fill="#3F3D56"/>
<defs>
<linearGradient id="paint0_linear_24_525" x1="40.641" y1="36.1698" x2="42.1892" y2="22.2718" gradientUnits="userSpaceOnUse">
<stop offset="0.02" stop-color="white" stop-opacity="0"/>
<stop offset="0.39" stop-color="white" stop-opacity="0.39"/>
<stop offset="1" stop-color="white"/>
</linearGradient>
<linearGradient id="paint1_linear_24_525" x1="41.6164" y1="20.0625" x2="40.7326" y2="30.6054" gradientUnits="userSpaceOnUse">
<stop offset="0.01"/>
<stop offset="0.83" stop-opacity="0.07"/>
<stop offset="1" stop-opacity="0"/>
</linearGradient>
<linearGradient id="paint2_linear_24_525" x1="2.42336" y1="49.0726" x2="38.2516" y2="57.3668" gradientUnits="userSpaceOnUse">
<stop offset="0.01"/>
<stop offset="0.83" stop-opacity="0.07"/>
<stop offset="1" stop-opacity="0"/>
</linearGradient>
<linearGradient id="paint3_linear_24_525" x1="85.526" y1="47.1775" x2="41.7637" y2="57.3079" gradientUnits="userSpaceOnUse">
<stop offset="0.01"/>
<stop offset="0.83" stop-opacity="0.07"/>
<stop offset="1" stop-opacity="0"/>
</linearGradient>
<linearGradient id="paint4_linear_24_525" x1="43.9076" y1="16.9464" x2="46.0352" y2="16.9464" gradientUnits="userSpaceOnUse">
<stop offset="0.01"/>
<stop offset="0.83" stop-opacity="0.07"/>
<stop offset="1" stop-opacity="0"/>
</linearGradient>
<linearGradient id="paint5_linear_24_525" x1="38.8702" y1="14.174" x2="45.0205" y2="14.174" gradientUnits="userSpaceOnUse">
<stop offset="0.01"/>
<stop offset="0.83" stop-opacity="0.07"/>
<stop offset="1" stop-opacity="0"/>
</linearGradient>
<linearGradient id="paint6_linear_24_525" x1="36.3302" y1="38.4119" x2="36.2189" y2="28.0556" gradientUnits="userSpaceOnUse">
<stop offset="0.02" stop-color="white" stop-opacity="0"/>
<stop offset="0.39" stop-color="white" stop-opacity="0.39"/>
<stop offset="1" stop-color="white"/>
</linearGradient>
<linearGradient id="paint7_linear_24_525" x1="34.9598" y1="38.0318" x2="35.6701" y2="38.0318" gradientUnits="userSpaceOnUse">
<stop offset="0.01"/>
<stop offset="0.83" stop-opacity="0.07"/>
<stop offset="1" stop-opacity="0"/>
</linearGradient>
<linearGradient id="paint8_linear_24_525" x1="36.3597" y1="38.4535" x2="37.07" y2="38.4535" gradientUnits="userSpaceOnUse">
<stop offset="0.01"/>
<stop offset="0.83" stop-opacity="0.07"/>
<stop offset="1" stop-opacity="0"/>
</linearGradient>
<linearGradient id="paint9_linear_24_525" x1="45.7079" y1="36.0094" x2="45.1351" y2="38.7948" gradientUnits="userSpaceOnUse">
<stop offset="0.01"/>
<stop offset="0.83" stop-opacity="0.07"/>
<stop offset="1" stop-opacity="0"/>
</linearGradient>
<linearGradient id="paint10_linear_24_525" x1="44.9485" y1="35.2402" x2="44.5328" y2="39.9961" gradientUnits="userSpaceOnUse">
<stop offset="0.01"/>
<stop offset="0.83" stop-opacity="0.07"/>
<stop offset="1" stop-opacity="0"/>
</linearGradient>
<linearGradient id="paint11_linear_24_525" x1="39.8882" y1="27.5057" x2="39.1648" y2="35.6035" gradientUnits="userSpaceOnUse">
<stop offset="0.02" stop-color="white" stop-opacity="0"/>
<stop offset="0.39" stop-color="white" stop-opacity="0.39"/>
<stop offset="1" stop-color="white"/>
</linearGradient>
<linearGradient id="paint12_linear_24_525" x1="42.4838" y1="27.738" x2="41.7604" y2="35.8359" gradientUnits="userSpaceOnUse">
<stop offset="0.02" stop-color="white" stop-opacity="0"/>
<stop offset="0.39" stop-color="white" stop-opacity="0.39"/>
<stop offset="1" stop-color="white"/>
</linearGradient>
</defs>
</svg>
