<svg width="93" height="122" viewBox="0 0 93 122" fill="none" xmlns="http://www.w3.org/2000/svg">
<path opacity="0.18" d="M4.59322 112.694C5.00628 113.189 5.44753 113.66 5.91478 114.104C10.7041 118.685 17.696 119.954 24.2826 120.63C37.1556 121.947 50.1376 121.774 62.9707 120.112H62.1354C62.953 120.01 63.7707 119.855 64.5777 119.682C69.9872 118.547 75.1079 116.319 79.6258 113.135C81.7308 111.632 83.6549 109.892 85.3596 107.947C90.681 101.861 93.5955 93.5016 92.3585 85.5018C91.3295 78.7707 87.5868 72.7585 85.9269 66.1577C82.5614 52.7449 88.0414 38.1126 83.8125 24.9253C82.8151 21.8099 81.2997 18.8849 79.7914 15.9775C78.8469 14.1625 77.8813 12.3123 76.4082 10.8886C74.7554 9.29216 72.5845 8.35474 70.47 7.44903C62.2376 3.92489 53.6951 0.361977 44.7438 0.53466C39.7924 0.626288 34.9114 1.88441 30.3265 3.7522C27.0173 5.10195 23.8068 6.79706 21.125 9.16529C15.1339 14.4515 12.3781 22.557 11.6556 30.511C10.9332 38.465 12.008 46.4366 12.438 54.3977C12.6847 58.9403 12.7093 63.5605 11.5111 67.9551C10.1578 72.9206 7.31387 77.3187 4.97736 81.9001C2.35539 87.0348 0.311394 92.5888 0.106995 98.3508C-0.0551224 103.475 1.36159 108.782 4.59322 112.694Z" fill="#EC6608"/>
<path opacity="0.54" d="M4.59323 112.694C5.00629 113.189 5.44754 113.66 5.91479 114.104C10.3411 118.333 16.6564 119.742 22.7884 120.465C23.2888 120.525 23.7857 120.578 24.2826 120.63C37.1556 121.947 50.1376 121.774 62.9707 120.112H62.1355C62.9531 120.01 63.7707 119.855 64.5777 119.682C64.8878 119.615 65.1979 119.545 65.5045 119.471C70.5766 118.287 75.3718 116.133 79.6258 113.128C70.6709 110.238 56.8598 108.384 41.3712 108.384C26.7037 108.409 13.5481 110.065 4.59323 112.694Z" fill="#EC6608"/>
<path opacity="0.54" d="M22.7602 120.218C22.755 120.305 22.755 120.392 22.7602 120.479C23.2606 120.539 23.7575 120.592 24.2544 120.645C37.1274 121.961 50.1094 121.788 62.9425 120.126H62.1072C62.9248 120.024 63.7425 119.869 64.5495 119.697C64.8596 119.63 65.1697 119.559 65.4763 119.485C64.3662 115.94 55.2563 113.18 44.1694 113.18C32.367 113.18 22.7602 116.331 22.7602 120.218Z" fill="#EC6608"/>
<path d="M53.3321 15.6638L56.4052 12.0692C56.4052 12.0692 55.5594 8.60848 50.0371 7.26578C48.9484 7.00555 47.8238 6.9305 46.7103 7.04376C45.15 7.17672 43.6186 7.54382 42.1676 8.13272L42.2135 12.2524C42.2135 12.2524 52.2714 12.8093 53.3321 15.6638Z" fill="#EC6608"/>
<path d="M53.3321 15.6638L56.4052 12.0692C56.4052 12.0692 55.5594 8.60848 50.0371 7.26578C48.9484 7.00555 47.8238 6.9305 46.7103 7.04376C45.15 7.17672 43.6186 7.54382 42.1676 8.13272L42.2135 12.2524C42.2135 12.2524 52.2714 12.8093 53.3321 15.6638Z" fill="url(#paint0_linear_24_690)"/>
<path d="M53.3321 15.6638C54.2202 15.0083 56.0246 15.2339 56.9197 15.5933C57.565 15.8564 58.1413 16.2643 58.6038 16.7856C59.0664 17.3068 59.403 17.9274 59.5875 18.5994C59.7475 19.2287 59.794 19.8815 59.7249 20.5271C59.5945 21.9368 58.9813 23.3887 57.8254 24.2345C55.4078 25.9966 53.9171 24.3614 53.1982 22.1588C52.7434 20.9106 52.5971 19.571 52.7718 18.2541C52.9022 17.2603 52.4476 16.4708 53.2194 15.759L53.3321 15.6638Z" fill="#C47331"/>
<path d="M48.2644 28.0935C44.5605 28.0935 41.558 24.3477 41.558 19.7271C41.558 15.1066 44.5605 11.3608 48.2644 11.3608C51.9683 11.3608 54.9709 15.1066 54.9709 19.7271C54.9709 24.3477 51.9683 28.0935 48.2644 28.0935Z" fill="#C47331"/>
<path d="M41.2514 18.032C41.1884 19.2463 41.2014 20.4633 41.2901 21.676C41.3708 22.4239 41.2766 23.1803 41.0148 23.8854C40.753 24.5906 40.3309 25.2253 39.7818 25.7393C40.1257 25.7801 40.4737 25.7694 40.8144 25.7076C40.9852 25.676 41.1467 25.6063 41.287 25.5039C41.4273 25.4014 41.5428 25.2687 41.6249 25.1156C41.4625 25.4014 41.2384 25.6474 40.9689 25.8358C40.6995 26.0241 40.3915 26.1501 40.0673 26.2045C40.7721 26.5111 42.6434 27.1666 42.7703 25.9719C42.8161 25.5138 42.6258 24.9817 42.5905 24.5235C42.5412 23.8997 42.5306 23.2689 42.4989 22.6452L42.2593 17.6232" fill="#C47331"/>
<path d="M26.9892 42.8032C26.9892 42.8032 25.7592 40.6324 25.2271 40.3082C24.7513 40.0157 23.7505 39.0888 23.465 39.2932C22.9716 39.6456 25.1073 41.5522 23.2007 41.4077C22.9011 41.383 21.3717 41.4077 20.6351 42.1125C20.4892 42.2495 20.3741 42.416 20.2976 42.6009C20.221 42.7858 20.1846 42.9849 20.191 43.1849C20.1973 43.3849 20.2462 43.5813 20.3343 43.761C20.4224 43.9407 20.5478 44.0995 20.7021 44.227C21.2025 44.5794 22.9188 44.7239 23.8456 44.6957C24.7725 44.6675 25.8579 44.8014 26.4922 45.182" fill="#F6C8C9"/>
<path d="M40.1236 33.5841C40.1236 33.5841 39.2426 36.3505 39.1545 37.8448C39.0664 39.339 38.3686 45.6261 38.1325 45.9503C37.8964 46.2745 26.6262 42.4262 26.6262 42.4262C26.6262 42.4262 25.946 43.3847 26.4922 45.1926C26.4922 45.1926 34.8586 52.766 39.9228 53.062C44.987 53.358 44.3385 41.3619 44.3385 41.3619" fill="#F6C8C9"/>
<path d="M35.2392 45.6261C35.195 45.7245 35.1851 45.835 35.211 45.9397C35.2434 46.0107 35.2931 46.0725 35.3555 46.1195L37.2902 47.8604C37.5058 48.0948 37.785 48.2614 38.0937 48.3397C38.2651 48.3542 38.4375 48.3279 38.5967 48.263C38.756 48.198 38.8976 48.0963 39.01 47.9661C39.2336 47.7062 39.4144 47.4124 39.5457 47.0957C39.8915 46.4146 40.1837 45.7076 40.4197 44.9812C40.7234 43.8725 40.8681 42.7262 40.8496 41.5768C40.8496 40.2447 40.7897 38.9161 40.6981 37.5875C40.6914 37.142 40.6177 36.7001 40.4796 36.2765C40.3732 35.9484 40.1598 35.6654 39.8734 35.473C39.4646 35.2721 39.3906 35.5118 39.1862 35.8642C38.7563 36.6078 38.3686 37.369 38.0091 38.1443C37.3075 39.6823 36.6875 41.2563 36.1519 42.8596C35.8418 43.783 35.5387 44.7028 35.2392 45.6261Z" fill="#EC6608"/>
<path d="M35.3026 45.3759C35.2593 45.4732 35.2482 45.5819 35.2709 45.686C35.3039 45.7577 35.3549 45.8196 35.4189 45.8657L37.3537 47.6102C37.5692 47.8446 37.8485 48.0112 38.1572 48.0895C38.3284 48.1029 38.5005 48.0761 38.6595 48.0112C38.8186 47.9463 38.9604 47.8452 39.0734 47.7159C39.2962 47.4554 39.477 47.1617 39.6091 46.8454C39.9534 46.1637 40.2456 45.4568 40.4831 44.731C40.7871 43.6224 40.9307 42.476 40.9095 41.3266C40.9271 39.9945 40.8531 38.6624 40.7615 37.3338C40.7545 36.8895 40.6809 36.4488 40.543 36.0263C40.4367 35.6982 40.2232 35.4152 39.9369 35.2228C39.5281 35.0184 39.4541 35.2616 39.232 35.614C38.8021 36.3541 38.4144 37.1188 38.0514 37.8941C37.3557 39.4289 36.7381 40.998 36.2013 42.5953C35.9052 43.5292 35.6022 44.4526 35.3026 45.3759Z" fill="url(#paint1_linear_24_690)"/>
<path d="M50.0335 112.535L46.6045 117.924C47.1543 117.737 52.289 116.581 53.4801 116.585C54.2609 116.552 55.0121 116.277 55.6299 115.799L54.8827 111.982L53.5541 93.1069L46.4107 94.143L50.0335 112.535Z" fill="#F6C8C9"/>
<path d="M36.2612 112.391L33.0366 117.244C33.6145 117.198 37.4946 116.342 38.647 116.645C39.4121 116.807 40.2087 116.728 40.9271 116.419L41.1527 112.543L42.6117 95.0698L36.4691 92.0778L36.2612 112.391Z" fill="#F6C8C9"/>
<path d="M50.8829 25.3059L51.1718 31.3815C50.8529 31.8447 50.4166 32.2148 49.9076 32.4538C49.3985 32.6929 48.8351 32.7922 48.275 32.7418C45.3464 32.4141 45.4557 31.5436 45.4557 31.5436C45.4557 31.5436 45.4557 27.1561 45.3358 26.1763" fill="#F6C8C9"/>
<path d="M50.1851 27.2829L50.8617 26.06L45.3535 26.6697C45.3993 27.0433 45.4275 27.9137 45.4451 28.8512C46.3009 29.1031 47.2132 29.0879 48.0601 28.8077C48.9071 28.5275 49.6484 27.9955 50.1851 27.2829Z" fill="#DCB5B0"/>
<path d="M33.1176 92.321C36.8039 97.1808 47.0028 96.4266 52.6625 95.9121C53.6211 95.824 55.0096 95.9121 55.9083 95.5597C58.0404 94.7209 56.8845 93.7342 56.518 91.6338C55.7708 87.3273 56.5462 82.9186 56.7541 78.5944C56.8351 76.8148 56.0246 70.2493 55.4678 66.2353C55.207 64.3569 55.0026 63.0353 54.9709 63.0177C53.6141 62.2882 50.1992 64.8785 48.6767 64.8115C48.0248 64.7798 41.6743 63.9058 38.9113 63.5534C38.5193 64.4817 38.0673 65.3834 37.5581 66.2529C37.4883 66.354 37.4259 66.46 37.3713 66.5701C37.3043 67.2996 37.2303 68.1207 37.1493 69.0053C36.2999 78.3266 33.1176 92.321 33.1176 92.321Z" fill="#EC6608"/>
<path d="M33.1176 92.321C36.5537 96.8495 45.646 96.5006 51.4432 96.0178L52.659 95.9121C53.6176 95.824 55.0061 95.9121 55.9048 95.5597C58.0369 94.7209 56.8809 93.7342 56.5144 91.6338C55.7673 87.3273 56.5426 82.9186 56.7505 78.5944C56.8316 76.8147 56.0211 70.2493 55.4642 66.2353C55.2035 64.3569 54.999 63.0353 54.9673 63.0177C54.5409 62.7851 53.9101 62.8873 53.2053 63.127C51.6546 63.6556 49.7234 64.8573 48.6803 64.8115C48.0283 64.7798 41.6778 63.9058 38.9149 63.5534C38.5247 64.4807 38.0738 65.3814 37.5651 66.2494C37.4954 66.3505 37.4329 66.4565 37.3783 66.5665C37.3114 67.296 37.2374 68.1172 37.1563 69.0017C36.2999 78.3266 33.1176 92.321 33.1176 92.321Z" fill="url(#paint2_linear_24_690)"/>
<path d="M37.5616 66.267C37.5616 66.267 39.81 72.2193 46.1182 72.8607C50.3296 73.2941 54.7559 67.2714 55.4713 66.2494L55.5735 66.1014V65.1886L55.2211 44.0755L55.0272 32.5445C55.0272 32.5445 54.2343 32.5797 51.0732 31.9982C48.1058 31.4555 47.0028 31.7269 44.8566 32.1357C40.9448 32.8793 40.5007 33.1224 39.9228 33.6299C38.9113 34.5039 36.3986 44.6746 39.9439 53.0444C41.3923 56.5122 37.5616 66.267 37.5616 66.267Z" fill="#EC6608"/>
<path d="M37.5616 66.267C37.5616 66.267 39.81 72.2193 46.1182 72.8607C48.4794 73.1038 50.904 71.3206 52.7084 69.5233C53.7175 68.5096 54.6416 67.4146 55.4713 66.2494L55.5735 66.1014V65.1886L55.4501 57.8549L55.2246 44.0755L55.0308 32.5445C55.0308 32.5445 54.2378 32.5797 51.0767 31.9982C48.1094 31.4555 47.0063 31.7269 44.8601 32.1357C40.9483 32.8793 40.5042 33.1224 39.9263 33.6299C38.9149 34.5039 36.4021 44.6746 39.9474 53.0444C41.3994 56.4664 37.6849 66.0133 37.5863 66.2635L37.5616 66.267Z" fill="url(#paint3_linear_24_690)"/>
<path d="M51.4467 96.0178L52.6625 95.9121C53.6211 95.824 55.0096 95.9121 55.9083 95.5597C58.0404 94.7209 56.8845 93.7342 56.518 91.6338C55.7708 87.3273 56.5462 82.9186 56.7541 78.5944C56.8351 76.8148 56.0246 70.2493 55.4678 66.2353L55.57 66.0873V65.1745L55.4466 57.8408L53.5753 59.1341L53.2229 63.127L52.6766 68.9383C52.6766 68.9383 52.6766 69.1462 52.7048 69.5127C52.8423 72.5223 53.4097 86.4533 52.1762 88.9167C51.1577 90.9677 51.3057 94.372 51.4467 96.0178Z" fill="url(#paint4_linear_24_690)"/>
<path d="M45.1913 53.573L42.5905 44.9988C42.516 44.7529 42.3629 44.5381 42.1549 44.3873C41.9468 44.2365 41.6951 44.1579 41.4381 44.1636L34.6224 44.2235C34.4375 44.2252 34.2556 44.2703 34.0913 44.3552C33.9271 44.4401 33.785 44.5624 33.6767 44.7122C33.5683 44.8621 33.4967 45.0353 33.4675 45.2179C33.4384 45.4005 33.4525 45.5874 33.5088 45.7635L37.692 58.8029C37.7697 59.0464 37.9245 59.2582 38.1329 59.4063C38.3414 59.5543 38.5923 59.6307 38.8479 59.624L45.3887 59.4407C45.5697 59.4354 45.747 59.3885 45.907 59.3036C46.0669 59.2188 46.2052 59.0983 46.3112 58.9515C46.4171 58.8046 46.4879 58.6354 46.518 58.4569C46.548 58.2783 46.5367 58.0953 46.4847 57.9218L45.1913 53.573Z" fill="#EC6608"/>
<path d="M45.1913 53.573L42.5905 44.9988C42.516 44.7529 42.3629 44.5381 42.1549 44.3873C41.9468 44.2365 41.6951 44.1579 41.4381 44.1636L34.6224 44.2235C34.4375 44.2252 34.2556 44.2703 34.0913 44.3552C33.9271 44.4401 33.785 44.5624 33.6767 44.7122C33.5683 44.8621 33.4967 45.0353 33.4675 45.2179C33.4384 45.4005 33.4525 45.5874 33.5088 45.7635L37.692 58.8029C37.7697 59.0464 37.9245 59.2582 38.1329 59.4063C38.3414 59.5543 38.5923 59.6307 38.8479 59.624L45.3887 59.4407C45.5697 59.4354 45.747 59.3885 45.907 59.3036C46.0669 59.2188 46.2052 59.0983 46.3112 58.9515C46.4171 58.8046 46.4879 58.6354 46.518 58.4569C46.548 58.2783 46.5367 58.0953 46.4847 57.9218L45.1913 53.573Z" fill="url(#paint5_linear_24_690)"/>
<path d="M44.2892 53.5378L41.7659 45.0023C41.7051 44.7667 41.5688 44.5575 41.3779 44.4067C41.187 44.2558 40.9519 44.1717 40.7086 44.1671L34.5484 44.2305C34.3732 44.2446 34.2037 44.2991 34.0531 44.3897C33.9025 44.4803 33.7749 44.6046 33.6803 44.7527C33.5858 44.9009 33.5268 45.0689 33.5081 45.2437C33.4893 45.4184 33.5113 45.5952 33.5722 45.76L37.6321 58.7535C37.6957 58.9858 37.8334 59.1909 38.0242 59.3378C38.215 59.4848 38.4485 59.5654 38.6893 59.5676L44.6099 59.3843C44.7817 59.3676 44.9474 59.3119 45.0945 59.2215C45.2415 59.1311 45.366 59.0083 45.4584 58.8625C45.5508 58.7167 45.6088 58.5518 45.6279 58.3802C45.6469 58.2087 45.6266 58.035 45.5684 57.8725L44.2892 53.5378Z" fill="url(#paint6_linear_24_690)"/>
<path d="M53.1735 15.4665C53.1735 15.4665 52.9304 23.2478 50.6679 25.9085C48.282 28.7278 46.9217 29.0802 44.0284 27.9137C41.5615 26.934 41.2725 20.1923 41.1879 18.2541C40.9729 13.2181 48.6944 8.87983 53.1735 15.4665Z" fill="#F6C8C9"/>
<path d="M50.9815 41.9997L55.5559 65.1886L55.207 44.079L54.9709 38.5602L50.9815 41.9997Z" fill="url(#paint7_linear_24_690)"/>
<path d="M52.2749 20.4073C52.2749 20.4073 52.4018 19.2373 53.5542 19.7412C54.7065 20.2452 53.6246 22.2927 53.1735 22.846C52.7225 23.3993 51.8626 23.2301 51.8626 23.2301" fill="#F6C8C9"/>
<path d="M41.3289 13.0313C40.9199 13.4817 40.6075 14.0111 40.4111 14.5869C40.2147 15.1628 40.1385 15.7728 40.1871 16.3792C40.3386 17.884 41.3994 19.0082 42.9747 18.8109C42.9747 18.8109 42.1853 17.2321 43.1967 16.4638C43.1967 16.4638 43.4716 18.3069 45.3535 18.4761L46.5658 18.3915C46.5658 18.3915 46.1429 16.707 46.5658 16.2418C46.9887 15.7766 47.5737 18.5994 48.6803 18.832C49.1368 18.9418 49.6031 19.0056 50.0723 19.0223C50.319 19.0646 51.1683 17.5281 51.1824 17.5069C51.1129 17.7861 51.0751 18.0722 51.0696 18.3598C50.9869 18.8444 50.9398 19.3344 50.9287 19.8258C50.8934 21.024 50.8899 22.2222 50.9287 23.4204C50.9533 24.305 51.0062 25.2213 51.422 26.0036C51.8379 26.786 52.7119 27.3922 53.5788 27.2124C52.8458 26.779 52.5392 25.8697 52.4652 25.0204C52.3824 23.9216 52.4584 22.8166 52.6907 21.7394C52.8493 20.8725 52.7401 19.6637 53.1876 18.8743C54.5515 16.4708 53.2088 13.4824 50.8793 12.337C48.349 11.0895 44.6909 10.5749 42.2276 12.2524C41.8967 12.4735 41.5948 12.7352 41.3289 13.0313Z" fill="#C47331"/>
<path d="M55.0132 32.8053C55.0132 32.8053 56.3981 34.7189 58.8615 42.479C59.7778 45.3583 61.5152 51.8039 61.5152 51.8039C61.5152 51.8039 57.8712 53.0479 55.2986 53.0479C54.1462 46.3697 51.3798 43.783 50.8617 40.7134C50.3437 37.6439 53.4696 32.2132 55.0132 32.8053Z" fill="#EC6608"/>
<path d="M55.0132 32.8053C55.0132 32.8053 56.3981 34.7189 58.8615 42.479C59.7778 45.3583 61.5152 51.8039 61.5152 51.8039C61.5152 51.8039 57.8712 53.0479 55.2986 53.0479C54.1462 46.3697 51.3798 43.783 50.8617 40.7134C50.3437 37.6439 53.4696 32.2132 55.0132 32.8053Z" fill="url(#paint8_linear_24_690)"/>
<path d="M52.5709 30.6485L52.6238 32.0581C52.6273 32.1715 52.5987 32.2836 52.5414 32.3815C52.484 32.4794 52.4002 32.5591 52.2996 32.6114C52.2996 32.6114 50.0653 33.3656 46.2028 33.57L43.3623 32.8652C43.2633 32.8202 43.1782 32.7494 43.1161 32.66C43.0541 32.5707 43.0174 32.4662 43.0099 32.3577L42.9711 31.6528C42.9621 31.5005 43.0119 31.3504 43.1102 31.2337C43.2086 31.1169 43.3481 31.0424 43.4998 31.0255L51.9049 30.074C51.9869 30.0647 52.07 30.0725 52.149 30.0969C52.2279 30.1213 52.3009 30.1617 52.3634 30.2157C52.426 30.2696 52.4767 30.3359 52.5124 30.4104C52.5481 30.4849 52.568 30.5659 52.5709 30.6485Z" fill="#EC6608"/>
<path d="M52.5709 30.6485L52.6238 32.0581C52.6273 32.1715 52.5987 32.2836 52.5414 32.3815C52.484 32.4794 52.4002 32.5591 52.2996 32.6114C52.2996 32.6114 50.0653 33.3656 46.2028 33.57L43.3623 32.8652C43.2633 32.8202 43.1782 32.7494 43.1161 32.66C43.0541 32.5707 43.0174 32.4662 43.0099 32.3577L42.9711 31.6528C42.9621 31.5005 43.0119 31.3504 43.1102 31.2337C43.2086 31.1169 43.3481 31.0424 43.4998 31.0255L51.9049 30.074C51.9869 30.0647 52.07 30.0725 52.149 30.0969C52.2279 30.1213 52.3009 30.1617 52.3634 30.2157C52.426 30.2696 52.4767 30.3359 52.5124 30.4104C52.5481 30.4849 52.568 30.5659 52.5709 30.6485Z" fill="url(#paint9_linear_24_690)"/>
<path d="M48.4512 115.016C48.5898 114.93 48.7496 114.884 48.9129 114.883C49.0809 114.912 49.238 114.986 49.3675 115.098C50.2238 115.704 51.1648 116.246 52.2079 116.356C53.2511 116.465 54.4035 116.031 54.8792 115.098C54.985 114.886 55.0801 114.636 55.2986 114.551C55.4164 114.52 55.5414 114.53 55.6529 114.579C55.7644 114.628 55.8557 114.714 55.9118 114.823C56.0182 115.042 56.0725 115.283 56.0704 115.527L56.1268 116.444C56.2263 117.075 56.1507 117.721 55.9083 118.312C55.6123 118.875 54.851 119.249 54.3189 118.918C54.0088 118.724 53.8396 118.354 53.5224 118.178C53.3501 118.101 53.1617 118.067 52.9733 118.078C52.7849 118.09 52.6021 118.147 52.4405 118.245C52.12 118.442 51.816 118.665 51.5313 118.911C49.9983 120.06 47.9261 120.077 46.0125 120.049C45.5616 120.079 45.1103 119.998 44.698 119.813C44.4535 119.675 44.2557 119.467 44.1302 119.216C44.0046 118.965 43.9569 118.682 43.9931 118.403C44.1235 117.561 45.0821 117.17 45.7024 116.719C46.5688 116.074 47.4884 115.505 48.4512 115.016Z" fill="#3F3D56"/>
<path d="M33.8753 115.14C34.0129 115.042 34.181 114.996 34.3492 115.012C34.5173 115.027 34.6744 115.103 34.7916 115.224C35.648 115.827 36.5889 116.373 37.6321 116.483C38.6752 116.592 39.8276 116.155 40.3034 115.224C40.4091 115.013 40.5043 114.759 40.7228 114.675C40.8406 114.645 40.9651 114.655 41.0763 114.704C41.1875 114.753 41.2789 114.839 41.336 114.946C41.4419 115.166 41.4961 115.407 41.4945 115.651L41.5509 116.564C41.6507 117.196 41.5751 117.843 41.3324 118.435C41.0364 118.999 40.2752 119.372 39.743 119.038C39.4329 118.847 39.2638 118.474 38.9466 118.301C38.7744 118.223 38.5859 118.189 38.3973 118.2C38.2088 118.212 38.0259 118.269 37.8647 118.368C37.5442 118.565 37.2401 118.788 36.9554 119.034C35.4224 120.183 33.3502 120.2 31.4366 120.172C30.9858 120.202 30.5344 120.121 30.1221 119.936C29.8776 119.798 29.6799 119.59 29.5543 119.339C29.4287 119.088 29.381 118.805 29.4173 118.526C29.5477 117.681 30.5063 117.293 31.1265 116.838C31.9948 116.198 32.9142 115.63 33.8753 115.14Z" fill="#3F3D56"/>
<path d="M48.4512 115.016C48.5898 114.93 48.7496 114.884 48.9129 114.883C49.0809 114.912 49.238 114.986 49.3675 115.098C50.2238 115.704 51.1648 116.246 52.2079 116.356C53.2511 116.465 54.4035 116.031 54.8792 115.098C54.985 114.886 55.0801 114.636 55.2986 114.551C55.4164 114.52 55.5414 114.53 55.6529 114.579C55.7644 114.628 55.8557 114.714 55.9118 114.823C56.0182 115.042 56.0725 115.283 56.0704 115.527L56.1268 116.444C56.2263 117.075 56.1507 117.721 55.9083 118.312C55.6123 118.875 54.851 119.249 54.3189 118.918C54.0088 118.724 53.8396 118.354 53.5224 118.178C53.3501 118.101 53.1617 118.067 52.9733 118.078C52.7849 118.09 52.6021 118.147 52.4405 118.245C52.12 118.442 51.816 118.665 51.5313 118.911C49.9983 120.06 47.9261 120.077 46.0125 120.049C45.5616 120.079 45.1103 119.998 44.698 119.813C44.4535 119.675 44.2557 119.467 44.1302 119.216C44.0046 118.965 43.9569 118.682 43.9931 118.403C44.1235 117.561 45.0821 117.17 45.7024 116.719C46.5688 116.074 47.4884 115.505 48.4512 115.016Z" fill="url(#paint10_linear_24_690)"/>
<path d="M33.8753 115.14C34.0129 115.042 34.181 114.996 34.3492 115.012C34.5173 115.027 34.6744 115.103 34.7916 115.224C35.648 115.827 36.5889 116.373 37.6321 116.483C38.6752 116.592 39.8276 116.155 40.3034 115.224C40.4091 115.013 40.5043 114.759 40.7228 114.675C40.8406 114.645 40.9651 114.655 41.0763 114.704C41.1875 114.753 41.2789 114.839 41.336 114.946C41.4419 115.166 41.4961 115.407 41.4945 115.651L41.5509 116.564C41.6507 117.196 41.5751 117.843 41.3324 118.435C41.0364 118.999 40.2752 119.372 39.743 119.038C39.4329 118.847 39.2638 118.474 38.9466 118.301C38.7744 118.223 38.5859 118.189 38.3973 118.2C38.2088 118.212 38.0259 118.269 37.8647 118.368C37.5442 118.565 37.2401 118.788 36.9554 119.034C35.4224 120.183 33.3502 120.2 31.4366 120.172C30.9858 120.202 30.5344 120.121 30.1221 119.936C29.8776 119.798 29.6799 119.59 29.5543 119.339C29.4287 119.088 29.381 118.805 29.4173 118.526C29.5477 117.681 30.5063 117.293 31.1265 116.838C31.9948 116.198 32.9142 115.63 33.8753 115.14Z" fill="url(#paint11_linear_24_690)"/>
<path d="M60.324 55.1377C59.8518 56.4734 58.562 57.3439 57.2439 57.8654C55.0378 58.7394 52.6203 58.8945 50.2485 58.9826C48.2656 59.0554 46.2803 59.0871 44.2927 59.0777C43.9115 59.0971 43.5296 59.0554 43.1615 58.9544C42.4143 58.7112 41.9104 58.0346 41.4523 57.3967C40.9941 56.7589 40.469 55.8778 40.8144 55.1272C41.1597 54.3765 42.1183 54.2074 42.9289 54.3272C43.7394 54.447 44.5006 54.7748 45.3041 54.7043L45.2055 53.573C45.5579 53.351 45.9632 53.714 46.2627 53.9748C47.549 55.032 49.4344 54.6514 51.052 54.2109L57.9593 52.322C58.7276 52.1105 59.6192 51.5889 60.1866 52.322C60.6976 52.9951 60.5743 54.4153 60.324 55.1377Z" fill="#F6C8C9"/>
<path d="M40.3809 44.2023C40.2823 43.9081 40.0825 43.6583 39.8171 43.4975C39.4646 43.272 37.3502 43.2755 36.2929 43.2931C35.9405 43.2931 35.8982 43.7548 36.1801 44.2904L36.1343 44.2129L40.3809 44.2023Z" fill="#EC6608"/>
<path d="M40.3809 44.2023C40.2823 43.9081 40.0825 43.6583 39.8171 43.4975C39.4646 43.272 37.3502 43.2755 36.2929 43.2931C35.9405 43.2931 35.8982 43.7548 36.1801 44.2904L36.1343 44.2129L40.3809 44.2023Z" fill="url(#paint12_linear_24_690)"/>
<path d="M49.4133 7.92479L48.867 8.90802L50.2485 9.44369L49.7481 10.3212L48.5534 9.84897L48.208 10.6031L46.9288 10.2895L47.3799 9.52475L46.3015 9.28511L46.7843 8.37588L47.8521 8.60495L48.2715 7.74506L49.4133 7.92479Z" fill="#EC6608"/>
<defs>
<linearGradient id="paint0_linear_24_690" x1="50.8582" y1="5.01033" x2="48.7225" y2="11.9212" gradientUnits="userSpaceOnUse">
<stop offset="0.02" stop-color="white" stop-opacity="0"/>
<stop offset="0.39" stop-color="white" stop-opacity="0.39"/>
<stop offset="1" stop-color="white"/>
</linearGradient>
<linearGradient id="paint1_linear_24_690" x1="40.7157" y1="42.1231" x2="36.1907" y2="40.865" gradientUnits="userSpaceOnUse">
<stop offset="0.02" stop-color="white" stop-opacity="0"/>
<stop offset="0.39" stop-color="white" stop-opacity="0.39"/>
<stop offset="1" stop-color="white"/>
</linearGradient>
<linearGradient id="paint2_linear_24_690" x1="70.2903" y1="82.0305" x2="43.9015" y2="79.0138" gradientUnits="userSpaceOnUse">
<stop offset="0.02" stop-color="white" stop-opacity="0"/>
<stop offset="0.39" stop-color="white" stop-opacity="0.39"/>
<stop offset="1" stop-color="white"/>
</linearGradient>
<linearGradient id="paint3_linear_24_690" x1="62.1672" y1="52.2902" x2="41.8082" y2="52.2902" gradientUnits="userSpaceOnUse">
<stop offset="0.02" stop-color="white" stop-opacity="0"/>
<stop offset="0.39" stop-color="white" stop-opacity="0.39"/>
<stop offset="1" stop-color="white"/>
</linearGradient>
<linearGradient id="paint4_linear_24_690" x1="75.9395" y1="76.4623" x2="49.1736" y2="77.0262" gradientUnits="userSpaceOnUse">
<stop offset="0.01"/>
<stop offset="0.83" stop-opacity="0.07"/>
<stop offset="1" stop-opacity="0"/>
</linearGradient>
<linearGradient id="paint5_linear_24_690" x1="37.2268" y1="41.2385" x2="39.4047" y2="49.5308" gradientUnits="userSpaceOnUse">
<stop offset="0.01"/>
<stop offset="0.83" stop-opacity="0.07"/>
<stop offset="1" stop-opacity="0"/>
</linearGradient>
<linearGradient id="paint6_linear_24_690" x1="36.5325" y1="65.9956" x2="41.3923" y2="43.2931" gradientUnits="userSpaceOnUse">
<stop offset="0.01"/>
<stop offset="0.83" stop-opacity="0.07"/>
<stop offset="1" stop-opacity="0"/>
</linearGradient>
<linearGradient id="paint7_linear_24_690" x1="61.2544" y1="51.2259" x2="49.6318" y2="52.4841" gradientUnits="userSpaceOnUse">
<stop offset="0.01"/>
<stop offset="0.83" stop-opacity="0.07"/>
<stop offset="1" stop-opacity="0"/>
</linearGradient>
<linearGradient id="paint8_linear_24_690" x1="61.5152" y1="42.9055" x2="50.8053" y2="42.9055" gradientUnits="userSpaceOnUse">
<stop offset="0.02" stop-color="white" stop-opacity="0"/>
<stop offset="0.39" stop-color="white" stop-opacity="0.39"/>
<stop offset="1" stop-color="white"/>
</linearGradient>
<linearGradient id="paint9_linear_24_690" x1="48.4582" y1="33.2775" x2="47.2001" y2="29.926" gradientUnits="userSpaceOnUse">
<stop offset="0.02" stop-color="white" stop-opacity="0"/>
<stop offset="0.39" stop-color="white" stop-opacity="0.39"/>
<stop offset="1" stop-color="white"/>
</linearGradient>
<linearGradient id="paint10_linear_24_690" x1="56.155" y1="117.29" x2="43.9861" y2="117.29" gradientUnits="userSpaceOnUse">
<stop offset="0.01"/>
<stop offset="0.83" stop-opacity="0.07"/>
<stop offset="1" stop-opacity="0"/>
</linearGradient>
<linearGradient id="paint11_linear_24_690" x1="41.5791" y1="117.416" x2="29.4102" y2="117.416" gradientUnits="userSpaceOnUse">
<stop offset="0.01"/>
<stop offset="0.83" stop-opacity="0.07"/>
<stop offset="1" stop-opacity="0"/>
</linearGradient>
<linearGradient id="paint12_linear_24_690" x1="38.1431" y1="43.3988" x2="38.2171" y2="44.664" gradientUnits="userSpaceOnUse">
<stop offset="0.02" stop-color="white" stop-opacity="0"/>
<stop offset="0.39" stop-color="white" stop-opacity="0.39"/>
<stop offset="1" stop-color="white"/>
</linearGradient>
</defs>
</svg>
