<svg width="94" height="80" viewBox="0 0 94 80" fill="none" xmlns="http://www.w3.org/2000/svg">
<path opacity="0.24" d="M15.9288 76.215C31.324 79.3415 47.0848 80.2693 62.7406 78.9708C68.2521 78.5127 73.811 77.7544 78.932 75.6731C84.0529 73.5917 88.7482 70.0291 91.2607 65.1027C93.7732 60.1764 93.7543 53.7971 90.4119 49.3911C88.4306 46.7786 85.3626 44.8243 84.476 41.6684C83.8002 39.2465 84.5787 36.6921 85.0855 34.235C85.8559 30.4994 85.9437 26.4353 84.18 23.0537C80.8917 16.7488 72.6203 14.981 67.7534 9.79653C66.4019 8.36255 65.3355 6.67583 63.8961 5.33646C61.7121 3.28888 58.8008 2.18197 55.8883 1.49269C47.2668 -0.548127 37.4087 1.03047 31.0768 7.22726C28.5089 9.73976 26.6316 12.8672 25.0192 16.0771C21.7201 22.6483 19.3063 29.9006 14.1799 35.1716C10.9119 38.5275 6.67211 40.9264 3.85281 44.6729C0.696974 48.8654 -0.323435 54.5824 1.17947 59.6087C2.0404 62.4821 3.67035 65.1365 4.05419 68.1112C4.21908 69.3925 4.1488 70.7156 4.53398 71.9496C5.83146 76.111 12.5351 75.5258 15.9288 76.215Z" fill="#EC6608"/>
<path opacity="0.24" d="M55.4206 22.4104V34.8297H46.4127V44.1053H33.9988V34.8297H24.9962V22.4104H33.9988V13.6822H46.4127V22.4104H55.4206Z" fill="#EC6608"/>
<path d="M45.9721 36.4975C45.868 36.57 45.7932 36.6774 45.7612 36.8002C45.7261 37.0354 45.9748 37.2057 46.1964 37.2962C46.6454 37.4722 47.1254 37.5554 47.6074 37.5409C47.6622 37.5442 47.7165 37.529 47.7615 37.4976C47.8034 37.4485 47.8248 37.385 47.821 37.3206C47.8466 36.8705 47.9777 36.0379 47.5507 35.8704C47.1236 35.7028 46.2735 36.2447 45.9721 36.4975Z" fill="url(#paint0_linear_24_417)"/>
<path d="M57.9345 19.4195C57.9345 19.4195 55.449 23.4268 52.2513 33.6228C51.7702 35.1567 47.529 35.6338 47.529 35.6338L48.5778 38.5207C48.5778 38.5207 51.4634 38.7829 53.738 37.5584C56.0126 36.3339 57.5858 31.6117 57.5858 31.6117L57.9345 19.4195Z" fill="#EC6608"/>
<path d="M57.9345 19.4195C57.9345 19.4195 55.449 23.4268 52.2513 33.6228C51.7702 35.1567 47.529 35.6338 47.529 35.6338L48.5778 38.5207C48.5778 38.5207 51.4634 38.7829 53.738 37.5584C56.0126 36.3339 57.5858 31.6117 57.5858 31.6117L57.9345 19.4195Z" fill="url(#paint1_linear_24_417)"/>
<path d="M65.0909 12.9578C65.1056 13.1027 65.0891 13.2491 65.0425 13.3871C64.9959 13.5252 64.9202 13.6516 64.8206 13.7579C64.7753 13.8121 64.7166 13.8536 64.6503 13.8782C64.3083 13.9917 64.2881 13.2916 64.3881 13.0929C64.5111 12.8713 65.0449 12.5077 65.0909 12.9578Z" fill="url(#paint2_linear_24_417)"/>
<path d="M58.9428 12.5672C58.9279 12.7119 58.9444 12.8581 58.991 12.9959C59.0377 13.1338 59.1134 13.2599 59.2131 13.3659C59.2586 13.4197 59.3166 13.4615 59.382 13.4876C59.7253 13.5997 59.7456 12.8996 59.6455 12.701C59.5266 12.4739 58.9941 12.1158 58.9428 12.5672Z" fill="url(#paint3_linear_24_417)"/>
<path opacity="0.24" d="M53.4312 75.2676C53.1122 75.0189 52.9365 74.6351 52.6919 74.3134C51.6877 72.9903 49.7807 72.9146 48.171 72.5051C46.7548 72.1436 45.4456 71.4485 44.3529 70.4778C47.3425 70.1183 50.3673 70.2886 53.3717 70.4588L73.6975 71.609C74.8368 71.6725 75.9816 71.7374 77.0966 71.9739C77.4007 72.0374 77.7305 72.1334 77.8994 72.3956C78.09 72.6929 77.9886 73.1065 77.7561 73.3728C77.5237 73.639 77.1898 73.7904 76.8641 73.9296C73.6448 75.2987 70.0862 76.1718 66.6465 75.5379C66.4073 75.4933 66.1356 75.4163 66.0383 75.1933C65.941 74.9703 66.0802 74.6905 66.0383 74.4418C65.9559 73.9742 65.3423 73.8674 64.8679 73.8701L60.3402 73.8931C60.0699 73.8931 59.7902 73.9012 59.5712 74.0499C59.1063 74.3675 59.1658 75.1311 58.7197 75.4744C58.5116 75.6312 58.2372 75.6596 57.9778 75.6771C56.7816 75.7569 54.4516 76.0664 53.4312 75.2676Z" fill="#EC6608"/>
<path d="M63.5812 17.1002C65.1166 17.8395 66.2775 19.1586 67.3953 20.4439C67.621 20.7034 67.725 21.021 67.8453 21.3427C69.1131 24.7377 68.9265 26.9313 69.332 29.6992C69.6604 31.9671 69.8375 36.5042 69.8375 36.5042C69.8375 36.5042 69.7158 45.6271 69.2347 47.0732L54.1691 46.7124C54.1691 46.7124 55.3152 31.9658 55.4152 30.1615C55.8964 21.4035 57.6642 19.4749 58.9901 18.2679C60.3159 17.061 63.5812 17.1002 63.5812 17.1002Z" fill="#EC6608"/>
<path d="M63.5812 17.1002C65.1166 17.8395 66.2775 19.1586 67.3953 20.4439C67.621 20.7034 67.725 21.021 67.8453 21.3427C69.1131 24.7377 68.9265 26.9313 69.332 29.6992C69.6604 31.9671 69.8375 36.5042 69.8375 36.5042C69.8375 36.5042 69.7158 45.6271 69.2347 47.0732L54.1691 46.7124C54.1691 46.7124 55.3193 32.5537 55.3747 30.8845C55.6545 22.4063 57.3236 19.5316 58.9901 18.2706C60.4173 17.1867 63.5812 17.1002 63.5812 17.1002Z" fill="url(#paint4_linear_24_417)"/>
<path d="M66.3073 41.1941C64.0232 42.1982 61.712 43.4065 59.2658 42.9348C58.6981 42.8267 58.0859 42.6645 57.5642 42.9132C56.3262 43.4998 56.833 45.6068 55.7653 46.4664C55.6665 46.5566 55.5469 46.6209 55.4172 46.6537C55.2875 46.6865 55.1517 46.6867 55.0219 46.6543C54.5732 46.5029 54.5016 45.9082 54.5084 45.4379L54.5678 41.7171C54.5678 41.3549 54.5881 40.9656 54.8084 40.6778C54.9616 40.5008 55.151 40.3588 55.3639 40.2615C57.5367 39.0788 59.8581 38.1924 62.2662 37.626C63.438 37.3557 64.6287 37.1394 65.7802 36.7894C66.3796 36.6176 66.9637 36.3961 67.5264 36.1271C67.8142 35.9852 69.2658 32.1807 69.3252 32.4077C70.1321 35.4514 68.7968 40.1007 66.3073 41.1941Z" fill="url(#paint5_linear_24_417)"/>
<path d="M58.1318 26.7813L55.8869 26.7056C55.8869 26.7056 55.5707 29.7493 56.1437 29.9304C56.7168 30.1115 58.071 29.9601 58.071 29.9601L58.1318 26.7813Z" fill="white"/>
<path d="M63.9921 18.0895C63.9921 18.0895 62.2446 19.7465 61.2796 18.6302C60.3146 17.5138 60.4362 17.9368 60.4362 17.9368L61.0998 28.5491L63.9921 18.0895Z" fill="#606161"/>
<path d="M61.5769 7.12723C61.9005 6.73217 62.3656 6.47904 62.873 6.42173C63.3636 6.37037 63.9069 6.54067 64.1745 6.95559C64.3692 7.25698 64.3948 7.63136 64.4016 7.99357C64.4016 8.32875 64.4016 8.67609 64.2489 8.97478C64.0878 9.26571 63.8272 9.48883 63.515 9.60325C62.796 9.88707 61.9445 9.65596 61.3877 9.14372C60.8309 8.63149 61.1431 7.65839 61.5769 7.12723Z" fill="#606161"/>
<path d="M61.5769 7.12723C61.9005 6.73217 62.3656 6.47904 62.873 6.42173C63.3636 6.37037 63.9069 6.54067 64.1745 6.95559C64.3692 7.25698 64.3948 7.63136 64.4016 7.99357C64.4016 8.32875 64.4016 8.67609 64.2489 8.97478C64.0878 9.26571 63.8272 9.48883 63.515 9.60325C62.796 9.88707 61.9445 9.65596 61.3877 9.14372C60.8309 8.63149 61.1431 7.65839 61.5769 7.12723Z" fill="url(#paint6_linear_24_417)"/>
<path d="M63.3082 14.9162C63.3082 14.9162 63.3285 17.2057 63.8488 17.6882C64.3692 18.1706 61.7594 20.4196 60.6552 17.9085C60.6552 17.9085 61.2971 16.8272 61.0768 14.9959C60.8565 13.1646 63.3082 14.9162 63.3082 14.9162Z" fill="url(#paint7_linear_24_417)"/>
<path d="M63.3893 15.4581V15.9595C63.3893 15.9595 62.0634 17.8679 61.5215 17.2259C60.9795 16.5839 61.139 16.442 61.139 16.442L61.0795 14.9959L63.3893 15.4581Z" fill="url(#paint8_linear_24_417)"/>
<path d="M64.5746 11.6414C64.5746 11.6414 64.9557 15.1364 63.0879 15.8311C61.2201 16.5258 60.1051 15.5297 59.5928 13.843C59.0806 12.1563 59.8645 8.74908 61.8472 9.08696C63.8299 9.42484 64.5746 11.6414 64.5746 11.6414Z" fill="url(#paint9_linear_24_417)"/>
<path d="M64.8733 12.8159C64.96 12.6962 65.0157 12.5569 65.0355 12.4104C65.1564 11.7544 65.1034 11.0782 64.8816 10.4491C64.6599 9.82003 64.2773 9.25999 63.7718 8.82479C63.5667 8.64316 63.3285 8.50274 63.0703 8.41122C62.8118 8.33764 62.5423 8.31019 62.2743 8.33012C61.4323 8.35826 60.6206 8.65152 59.955 9.16808C59.6256 9.42824 59.3536 9.75389 59.1564 10.1245C58.9591 10.495 58.8408 10.9025 58.8089 11.3211C58.7863 11.5699 58.8267 11.8205 58.9265 12.0496C58.9774 12.1631 59.0541 12.2632 59.1505 12.3418C59.247 12.4205 59.3605 12.4754 59.482 12.5023C59.9145 12.5766 60.0334 12.1793 60.3821 11.913C60.9065 11.5076 61.0741 10.9183 62.2743 11.0183C64.2137 11.1832 64.3502 13.4551 64.8733 12.8159Z" fill="#606161"/>
<path d="M68.0291 46.9529L68.2697 70.5751L68.0899 73.8891L65.6788 74.0093L62.0635 48.3396L59.0657 74.0539L56.4897 74.0391L56.1586 46.7124L68.0291 46.9529Z" fill="#606161"/>
<path d="M68.0291 46.9529L68.2697 70.5751L68.0899 73.8891L65.6788 74.0093L62.004 48.0382L59.0657 74.0539L56.4897 74.0391L56.1586 46.7124L68.0291 46.9529Z" fill="url(#paint10_linear_24_417)"/>
<path d="M70.0781 75.8163L65.8599 75.7569L65.6788 74.0093L68.0899 73.889L70.0781 75.8163Z" fill="#606161"/>
<path d="M54.6665 75.8163L58.8846 75.7569L59.0657 74.0093L56.656 73.889L54.6665 75.8163Z" fill="#606161"/>
<path d="M63.5299 17.1854C63.5299 17.1854 64.2124 17.7679 63.5299 19.2127C62.8473 20.6575 61.0363 28.8194 61.0363 28.8194L64.6516 22.8537L64.2462 20.6048L65.0098 20.002C65.0098 20.002 65.0098 17.872 64.6043 17.4341C64.1989 16.9962 63.7826 17.0205 63.5299 17.1854Z" fill="#EC6608"/>
<path d="M61.0092 16.9137C61.0092 16.9137 59.928 17.184 59.7429 17.6976C59.5577 18.2112 58.809 19.7168 58.809 19.7168L59.2914 20.3791L58.5386 21.2508L61.0363 28.8194C61.0363 28.8194 60.393 18.5748 60.6551 17.9125C60.9173 17.2503 61.0092 16.9137 61.0092 16.9137Z" fill="#EC6608"/>
<path d="M63.5299 17.1854C63.5299 17.1854 64.2124 17.7679 63.5299 19.2127C62.8473 20.6575 61.0363 28.8194 61.0363 28.8194L64.6516 22.8537L64.2462 20.6048L65.0098 20.002C65.0098 20.002 65.0098 17.872 64.6043 17.4341C64.1989 16.9962 63.7826 17.0205 63.5299 17.1854Z" fill="url(#paint11_linear_24_417)"/>
<path d="M61.0092 16.9137C61.0092 16.9137 59.928 17.184 59.7429 17.6976C59.5577 18.2112 58.809 19.7168 58.809 19.7168L59.2914 20.3791L58.5386 21.2508L61.0363 28.8194C61.0363 28.8194 60.393 18.5748 60.6551 17.9125C60.9173 17.2503 61.0092 16.9137 61.0092 16.9137Z" fill="url(#paint12_linear_24_417)"/>
<path d="M59.2901 12.8159C59.2667 12.7947 59.2478 12.7689 59.2347 12.7402C59.2274 12.7077 59.2229 12.6747 59.2212 12.6415C59.2172 12.6079 59.2008 12.5771 59.1752 12.555C59.1628 12.5437 59.1475 12.5361 59.1311 12.533C59.1146 12.5299 59.0976 12.5315 59.082 12.5374C59.0683 12.5434 59.0562 12.5523 59.0463 12.5635C59.0365 12.5748 59.0293 12.588 59.0252 12.6023C59.016 12.6311 59.0114 12.6613 59.0117 12.6915C59.0001 12.8065 59.0173 12.9227 59.0617 13.0294C59.1047 13.1023 59.1595 13.1676 59.2239 13.2227C59.2461 13.2499 59.2781 13.2673 59.3131 13.2713C59.3359 13.2696 59.3579 13.2617 59.3766 13.2483C59.3852 13.2445 59.3927 13.2384 59.3982 13.2308C59.4002 13.2223 59.4002 13.2135 59.3982 13.2051C59.4109 13.1261 59.4086 13.0454 59.3915 12.9672C59.3733 12.9079 59.3381 12.8552 59.2901 12.8159Z" fill="url(#paint13_linear_24_417)"/>
<path d="M64.7044 13.1929C64.7274 13.1717 64.7458 13.1459 64.7584 13.1173C64.7664 13.0845 64.7709 13.051 64.7719 13.0172C64.7766 12.9839 64.7929 12.9533 64.8179 12.9307C64.8308 12.9199 64.8463 12.9125 64.8629 12.9094C64.8794 12.9064 64.8965 12.9076 64.9125 12.9132C64.9259 12.9198 64.9379 12.9291 64.9477 12.9405C64.9574 12.9518 64.9648 12.9651 64.9693 12.9794C64.9774 13.0084 64.9815 13.0384 64.9814 13.0686C64.994 13.1836 64.9767 13.3 64.9314 13.4065C64.8893 13.4797 64.8349 13.545 64.7706 13.5997C64.7483 13.627 64.7163 13.6444 64.6814 13.6484C64.6585 13.6467 64.6365 13.6387 64.6179 13.6254C64.6092 13.6216 64.6018 13.6155 64.5962 13.6079C64.595 13.5993 64.595 13.5907 64.5962 13.5822C64.582 13.5031 64.582 13.4221 64.5962 13.343C64.6169 13.2835 64.6545 13.2313 64.7044 13.1929Z" fill="url(#paint14_linear_24_417)"/>
<path d="M40.1645 59.6425H41.4066V65.7055H40.1645V59.6425Z" fill="#EC6608"/>
<path d="M40.1645 59.6425H41.4066V65.7055H40.1645V59.6425Z" fill="url(#paint15_linear_24_417)"/>
<path d="M24.8003 77.3625C22.9311 77.3625 21.4674 75.5041 21.4674 73.1308C21.4674 70.7575 22.9311 68.8992 24.8003 68.8992C26.6694 68.8992 28.1332 70.7575 28.1332 73.1308C28.1332 75.5041 26.6681 77.3625 24.8003 77.3625ZM24.8003 70.5832C23.9055 70.5832 23.1514 71.7496 23.1514 73.1308C23.1514 74.5121 23.9055 75.6785 24.8003 75.6785C25.695 75.6785 26.4491 74.5121 26.4491 73.1308C26.4491 71.7496 25.6936 70.5818 24.8003 70.5818V70.5832Z" fill="#606161"/>
<path d="M24.8003 77.3625C22.9311 77.3625 21.4674 75.5041 21.4674 73.1308C21.4674 70.7575 22.9311 68.8992 24.8003 68.8992C26.6694 68.8992 28.1332 70.7575 28.1332 73.1308C28.1332 75.5041 26.6681 77.3625 24.8003 77.3625ZM24.8003 70.5832C23.9055 70.5832 23.1514 71.7496 23.1514 73.1308C23.1514 74.5121 23.9055 75.6785 24.8003 75.6785C25.695 75.6785 26.4491 74.5121 26.4491 73.1308C26.4491 71.7496 25.6936 70.5818 24.8003 70.5818V70.5832Z" fill="url(#paint16_linear_24_417)"/>
<path d="M25.1463 68.9195C23.4744 69.1371 22.2067 70.9076 22.2067 73.1322C22.2067 75.3568 23.4744 77.126 25.1463 77.3436C26.8478 77.126 28.1331 75.3555 28.1331 73.1322C28.1331 70.9089 26.8424 69.1371 25.1463 68.9195ZM25.4868 75.6771C25.3704 75.6781 25.2548 75.657 25.1463 75.615C25.0348 75.6569 24.9166 75.678 24.7976 75.6771C23.9028 75.6771 23.1514 74.5094 23.1514 73.1308C23.1514 71.7523 23.9028 70.5819 24.7976 70.5819C24.916 70.582 25.0336 70.6007 25.1463 70.6373C25.2574 70.6002 25.3738 70.5815 25.4909 70.5819C26.3667 70.5819 27.1127 71.7428 27.1127 73.1295C27.1127 74.5162 26.3626 75.6785 25.4909 75.6785L25.4868 75.6771Z" fill="url(#paint17_linear_24_417)"/>
<path d="M15.4436 70.3994C15.1557 70.6765 14.9692 71.1819 15.2652 71.4482C15.4422 71.6077 15.7071 71.6009 15.9409 71.5833C17.6209 71.4685 19.4549 71.4928 21.1295 71.3306C21.3647 71.3076 21.4701 71.4374 21.6323 71.2644C21.7242 71.1671 21.7674 70.7116 21.812 70.5886L22.1188 69.729C22.1467 69.673 22.1552 69.6093 22.1431 69.5479C22.114 69.4822 22.0615 69.4297 21.9958 69.4006C21.5147 69.1168 20.6781 68.6005 20.1037 68.6194C19.5631 68.6357 19.1806 69.0708 18.6697 69.2695C17.6074 69.6804 16.3167 69.5642 15.4436 70.3994Z" fill="#606161"/>
<path d="M15.4436 70.3994C15.1557 70.6765 14.9692 71.1819 15.2652 71.4482C15.4422 71.6077 15.7071 71.6009 15.9409 71.5833C17.6209 71.4685 19.4549 71.4928 21.1295 71.3306C21.3647 71.3076 21.4701 71.4374 21.6323 71.2644C21.7242 71.1671 21.7674 70.7116 21.812 70.5886L22.1188 69.729C22.1467 69.673 22.1552 69.6093 22.1431 69.5479C22.114 69.4822 22.0615 69.4297 21.9958 69.4006C21.5147 69.1168 20.6781 68.6005 20.1037 68.6194C19.5631 68.6357 19.1806 69.0708 18.6697 69.2695C17.6074 69.6804 16.3167 69.5642 15.4436 70.3994Z" fill="url(#paint18_linear_24_417)"/>
<path d="M24.484 70.4886C23.8299 70.5129 23.123 70.5886 22.6419 71.0292C22.5567 71.1062 22.4756 71.2225 22.5175 71.3293C22.5503 71.3898 22.6027 71.4375 22.6662 71.4644C24.1786 72.3388 26.0558 72.2753 27.6804 72.92C27.8358 72.9808 28.0183 73.0471 28.1588 72.9592C28.2293 72.9054 28.285 72.8348 28.321 72.7538C28.5634 72.3033 28.7886 71.8419 28.9968 71.3698C29.0267 71.3174 29.039 71.2567 29.0319 71.1968C29.013 71.1062 28.917 71.0616 28.8332 71.0238C28.462 70.8679 28.0903 70.7152 27.7182 70.5656C27.3884 70.4305 26.8978 70.1169 26.5437 70.1021C26.264 70.0885 25.9464 70.3264 25.6585 70.3845C25.2707 70.4526 24.8777 70.4874 24.484 70.4886Z" fill="#606161"/>
<path d="M24.484 70.4886C23.8299 70.5129 23.123 70.5886 22.6419 71.0292C22.5567 71.1062 22.4756 71.2225 22.5175 71.3293C22.5503 71.3898 22.6027 71.4375 22.6662 71.4644C24.1786 72.3388 26.0558 72.2753 27.6804 72.92C27.8358 72.9808 28.0183 73.0471 28.1588 72.9592C28.2293 72.9054 28.285 72.8348 28.321 72.7538C28.5634 72.3033 28.7886 71.8419 28.9968 71.3698C29.0267 71.3174 29.039 71.2567 29.0319 71.1968C29.013 71.1062 28.917 71.0616 28.8332 71.0238C28.462 70.8679 28.0903 70.7152 27.7182 70.5656C27.3884 70.4305 26.8978 70.1169 26.5437 70.1021C26.264 70.0885 25.9464 70.3264 25.6585 70.3845C25.2707 70.4526 24.8777 70.4874 24.484 70.4886Z" fill="url(#paint19_linear_24_417)"/>
<path d="M39.8401 76.5881C35.2639 76.5881 31.5404 71.6225 31.5404 65.5176C31.5404 59.4128 35.2639 54.4459 39.8401 54.4459C44.4164 54.4459 48.1413 59.4128 48.1413 65.5176C48.1413 71.6225 44.4124 76.5881 39.8401 76.5881ZM39.8401 55.6879C35.9491 55.6879 32.7824 60.098 32.7824 65.5176C32.7824 70.9373 35.9491 75.346 39.8401 75.346C43.7312 75.346 46.8979 70.936 46.8979 65.5176C46.8979 60.0993 43.7366 55.6879 39.8401 55.6879Z" fill="#606161"/>
<path d="M50.9295 66.5016H24.8895V53.9161C24.888 52.861 25.3051 51.8484 26.0493 51.1005C26.7934 50.3525 27.8039 49.9303 28.8589 49.9263H41.3417V51.1684H28.8589C28.1323 51.1712 27.4365 51.4621 26.924 51.9771C26.4114 52.4922 26.124 53.1895 26.1248 53.9161V65.2595H50.524L50.816 65.0419V59.1762H52.0526V65.6636L50.9295 66.5016Z" fill="#EC6608"/>
<path d="M50.943 66.5016H24.8895V53.9161C24.888 52.8605 25.3055 51.8475 26.0502 51.0995C26.795 50.3515 27.8061 49.9296 28.8616 49.9263H41.3512V51.1684H28.8616C28.1348 51.1709 27.4386 51.4616 26.9258 51.9767C26.413 52.4918 26.1254 53.1892 26.1261 53.9161V65.2595H50.5376L50.8308 65.0419V59.1762H52.0675V65.6636L50.943 66.5016Z" fill="url(#paint20_linear_24_417)"/>
<path d="M50.943 66.5016H24.8895V53.9161C24.888 52.8605 25.3055 51.8475 26.0502 51.0995C26.795 50.3515 27.8061 49.9296 28.8616 49.9263H41.3512V51.1684H28.8616C28.1348 51.1709 27.4386 51.4616 26.9258 51.9767C26.413 52.4918 26.1254 53.1892 26.1261 53.9161V65.2595H50.5376L50.8308 65.0419V59.1762H52.0675V65.6636L50.943 66.5016Z" fill="url(#paint21_linear_24_417)"/>
<path d="M35.0246 47.0219C34.9449 47.3138 34.853 47.6165 34.6448 47.8328C34.4367 48.049 34.1353 48.1585 33.8447 48.2464C32.7203 48.5856 31.5471 48.7599 30.4497 49.183C29.3522 49.606 28.3048 50.3399 27.8655 51.4292C27.6628 51.9333 27.6439 52.601 28.0777 52.9281C28.5116 53.2551 29.1049 53.0713 29.6009 52.8821L36.0058 50.444C36.2302 50.3575 36.4681 50.2628 36.614 50.0709C36.76 49.879 36.787 49.6074 36.8046 49.3587C36.9334 47.5566 37.0614 45.7546 37.1884 43.9525C37.2398 43.2376 36.7897 41.2495 35.8558 42.5429C35.5625 42.9483 35.6396 44.1134 35.5558 44.6107C35.4192 45.4228 35.2419 46.2275 35.0246 47.0219Z" fill="url(#paint22_linear_24_417)"/>
<path d="M57.0574 40.8102C57.0506 40.8291 56.9952 40.8481 56.9506 40.8535C56.2424 40.9778 53.665 41.0643 53.665 41.0711C53.2973 41.0563 52.9384 41.1858 52.6649 41.4319C52.2986 41.7482 52.0999 42.2428 52.0621 42.8916C51.981 44.3945 52.0499 58.0369 52.0621 60.3534H25.003V56.7502L44.7638 55.0973L48.5157 45.6676H51.2863V41.7793C51.366 41.5495 51.8567 40.4129 53.3852 40.375C54.9382 40.3439 56.4478 40.3629 56.9574 40.375C57.0384 40.5426 57.0884 40.7359 57.0574 40.8102Z" fill="#EC6608"/>
<path d="M57.0952 41.1035C57.0952 41.1197 53.1041 41.0413 52.6649 41.4333C52.3 41.7468 52.1013 42.2361 52.0621 42.8916C52.0324 43.3808 52.0215 45.1892 52.0215 47.48V51.1359C52.0215 54.0066 52.0391 56.9557 52.0445 58.8059C52.0445 59.4952 52.0567 60.0358 52.0567 60.3548H25.003V56.7502L44.7611 55.1L48.5143 45.6703H51.2877V41.7806C51.4527 41.3379 51.761 40.9631 52.1635 40.7156C52.5342 40.4956 52.9568 40.378 53.3879 40.375C54.9368 40.3453 56.4465 40.3629 56.9587 40.375C57.0384 40.5453 57.129 41.0292 57.0952 41.1035Z" fill="url(#paint23_linear_24_417)"/>
<path d="M52.0621 41.3427C52.0269 41.9455 52.0215 44.4918 52.0215 47.48V51.1359C52.0337 54.5526 52.0499 57.7869 52.0567 58.8059H25.003V55.2014L44.7611 53.5525L48.5143 44.1174H51.2877V41.7806C51.4527 41.3379 51.761 40.9631 52.1635 40.7156C52.1042 40.9197 52.0701 41.1303 52.0621 41.3427Z" fill="url(#paint24_linear_24_417)"/>
<path d="M56.141 38.6248C55.2287 38.9343 54.3232 39.4965 53.9786 40.394C53.8218 40.7994 53.8218 41.3225 54.1664 41.5793C54.3867 41.7455 54.6854 41.7509 54.9611 41.7509C55.3895 41.7665 55.8182 41.7316 56.2383 41.6468C56.6616 41.5591 57.04 41.3239 57.306 40.9832C57.5466 40.644 57.6385 40.1872 57.9818 39.9453C58.3805 39.6601 59.0468 39.7277 59.2482 39.2803C59.3834 38.9816 59.2077 38.6113 59.0752 38.341C58.8563 37.8936 58.9819 37.9355 58.4859 38.0031C57.7196 38.1018 56.8627 38.3815 56.141 38.6248Z" fill="url(#paint25_linear_24_417)"/>
<path d="M44.726 35.8474C44.726 35.8474 48.1967 36.4813 49.5915 37.3787L48.7089 41.7428L48.8698 42.0347C48.8698 42.0347 48.4319 51.8293 47.5804 52.7483L36.3424 52.7267L37.0492 45.4163L34.8341 44.8919C34.8341 44.8919 37.1317 38.2491 37.5155 37.7206C38.098 36.9097 39.9969 36.4704 40.7822 36.1704C41.5674 35.8704 44.726 35.8474 44.726 35.8474Z" fill="#EC6608"/>
<path d="M44.7259 35.8474C44.7259 35.8474 48.1967 36.4813 49.5915 37.3787L48.7089 41.7428L48.8698 42.0347C48.8698 42.0347 48.4319 51.8293 47.5804 52.7483L36.3424 52.7267L37.1655 44.5999L35.4747 44.3093C35.4747 44.3093 37.1506 37.1813 37.6371 36.7407C38.1237 36.3001 40.0023 36.4704 40.7876 36.1677C41.5728 35.865 44.7259 35.8474 44.7259 35.8474Z" fill="url(#paint26_linear_24_417)"/>
<path d="M46.7911 42.7402C46.7911 42.7402 45.741 51.2549 44.8084 52.1847C43.8758 53.1146 44.7638 55.1027 44.7638 55.1027L47.5953 52.4442L49.1225 44.2553L46.7911 42.7402Z" fill="url(#paint27_linear_24_417)"/>
<path d="M45.3112 35.9352C45.2571 36.2447 45.0909 36.2664 44.9246 36.5313C44.7652 36.7638 44.5566 36.9585 44.3137 37.1016C43.8218 37.4179 43.2325 37.626 42.6513 37.5341C42.0702 37.4422 41.0457 36.8232 41.462 36.4123C42.0824 35.796 41.835 34.9513 41.6891 34.8202C41.1349 34.3215 42.4851 34.3229 43.1649 34.0093C43.7055 33.7633 44.3191 32.8308 44.8962 33.0876C45.4206 33.3268 45.3896 35.4879 45.3112 35.9352Z" fill="url(#paint28_linear_24_417)"/>
<path d="M44.2245 35.6541C44.0061 35.8872 43.7408 36.0715 43.446 36.1947C43.2981 36.2554 43.1384 36.2819 42.9788 36.2723C42.8193 36.2627 42.6639 36.2172 42.5243 36.1393C42.1959 35.9366 42.0526 35.5419 41.931 35.1757C41.8823 35.0311 41.8431 34.8472 41.9567 34.7445C41.9937 34.7147 42.0358 34.6919 42.081 34.677L43.7528 34.0201C44.0191 33.9014 44.3007 33.8209 44.5894 33.7809C45.1301 33.7349 45.3828 33.9606 45.1301 34.4567C44.8919 34.9002 44.5864 35.3041 44.2245 35.6541Z" fill="url(#paint29_linear_24_417)"/>
<path d="M36.464 56.7691L36.3518 56.7881C36.0884 56.9021 35.8348 57.0377 35.5936 57.1935L37.3709 57.1759C41.639 57.1313 44.0799 57.0881 44.5948 56.834C44.8499 56.7016 45.0967 56.554 45.3341 56.3921C42.5581 56.6015 36.5383 56.7624 36.464 56.7691Z" fill="#EC6608"/>
<path d="M46.683 56.8556C45.372 57.1422 37.3777 57.3652 36.5383 57.3841C36.1842 57.5395 35.4017 57.9747 35.253 58.4518C35.0165 59.2168 29.9158 70.5413 29.6996 71.0211L29.5928 71.263L25.5179 70.2439L25.6233 69.9277C26.0842 68.5113 30.1713 56.1177 31.2525 55.1554C32.2526 54.2607 34.7178 52.528 36.8546 52.3347C38.8306 52.1672 47.2358 52.428 47.5953 52.4402L47.8656 52.4469L47.8967 52.7172C47.9372 53.1038 48.2481 56.5137 46.683 56.8556Z" fill="#EC6608"/>
<path d="M46.683 56.8556C45.372 57.1422 37.3777 57.3652 36.5383 57.3841C36.1842 57.5395 35.4017 57.9747 35.253 58.4518C35.0165 59.2168 29.9158 70.5413 29.6996 71.0211L29.5928 71.263L25.5179 70.2439L25.6233 69.9277C25.9775 68.8343 28.4873 61.2184 30.1145 57.3476C30.5997 56.1988 31.0038 55.3784 31.2525 55.1554C32.0904 54.4039 33.9664 53.0619 35.8112 52.5402C36.1514 52.4374 36.5009 52.3685 36.8546 52.3347C38.8306 52.1672 47.2358 52.428 47.5953 52.4402L47.8656 52.4469L47.8967 52.7172C47.9372 53.1038 48.2481 56.5137 46.683 56.8556Z" fill="url(#paint30_linear_24_417)"/>
<path d="M47.3223 53.7566C47.3223 54.8311 47.1479 56.1164 46.5519 56.2475C46.1492 56.316 45.7432 56.3634 45.3355 56.3894C46.1613 55.8123 47.0871 54.8811 47.3223 53.7566Z" fill="#EC6608"/>
<path d="M47.3223 53.7431C47.3223 53.4957 47.3101 53.2525 47.2979 53.0484C45.8004 53.0038 38.6481 52.7997 36.9046 52.9551C36.5634 52.989 36.2265 53.0574 35.8991 53.1592C34.2962 53.6377 32.5756 54.8121 31.662 55.6204C31.5269 55.7379 31.3268 56.111 31.0714 56.6827C30.9849 56.8678 30.8916 57.08 30.8011 57.3098C29.3225 57.3841 28.1859 57.4828 27.7939 57.6517C26.6208 58.1599 24.2042 65.2419 22.9554 69.5777L22.8689 69.8885L19.1292 68.7086L19.209 68.4167C19.3441 67.9626 22.3716 57.3098 22.9487 55.8555C23.5582 54.3405 25.3598 53.6066 26.6708 53.0727L26.8505 52.9984C28.1548 52.4645 45.0963 52.4578 47.0276 52.4578H47.2817L47.3317 52.7132C47.3961 53.0538 47.3929 53.4037 47.3223 53.7431Z" fill="#EC6608"/>
<path d="M35.8112 52.5388C33.9664 53.0605 32.0904 54.4026 31.2525 55.1541C31.0038 55.3771 30.5997 56.1975 30.1145 57.3463C28.9725 57.4152 28.121 57.5084 27.7912 57.6517C26.6181 58.1599 24.2015 65.2419 22.9527 69.5777L22.8662 69.8885L19.1265 68.7086L19.2063 68.4167C19.3414 67.9626 22.3689 57.3098 22.946 55.8555C23.5555 54.3404 25.3571 53.6066 26.6681 53.0727L26.8478 52.9984C27.456 52.7497 31.4877 52.6132 35.8112 52.5388Z" fill="url(#paint31_linear_24_417)"/>
<path d="M51.3052 54.1472H51.2552C51.1201 54.1472 50.9944 54.135 50.8633 54.135C46.118 54.135 42.254 59.2411 42.254 65.5149C42.254 71.7888 46.118 76.8962 50.8633 76.8962C50.9984 76.8962 51.1241 76.8895 51.2552 76.8841H51.3052C55.8518 76.5786 59.4793 71.5969 59.4793 65.5149C59.4793 59.433 55.845 54.458 51.3052 54.1472ZM50.8633 75.0325C47.1493 75.0325 44.1178 70.7643 44.1178 65.5149C44.1178 60.2656 47.1493 55.9988 50.8633 55.9988C50.9984 55.9988 51.143 55.9988 51.2796 56.0177C54.8084 56.3218 57.6169 60.4656 57.6169 65.5149C57.6169 70.5643 54.8084 74.7054 51.2796 75.0135C51.1363 75.0257 50.9944 75.0325 50.8565 75.0325H50.8633Z" fill="#606161"/>
<path d="M51.3052 54.1472H51.2552C46.7141 54.458 43.0865 59.4398 43.0865 65.5149C43.0865 71.5901 46.7141 76.5786 51.2552 76.884H51.3052C55.8518 76.5786 59.4793 71.5968 59.4793 65.5149C59.4793 59.433 55.845 54.458 51.3052 54.1472ZM51.6958 75.0324C51.5607 75.0324 51.4174 75.0324 51.2795 75.0135C51.1444 75.0257 51.0011 75.0324 50.8633 75.0324C47.1492 75.0324 44.1178 70.7643 44.1178 65.5149C44.1178 60.2656 47.1492 55.9988 50.8633 55.9988C50.9984 55.9988 51.143 55.9988 51.2795 56.0177C51.4147 56.0055 51.5593 55.9988 51.6958 55.9988C55.4179 55.9988 58.4427 60.2669 58.4427 65.5149C58.4427 70.7629 55.4112 75.0324 51.6891 75.0324H51.6958Z" fill="url(#paint32_linear_24_417)"/>
<path d="M35.9937 77.3625C34.1245 77.3625 32.6608 75.5041 32.6608 73.1308C32.6608 70.7575 34.1245 68.8992 35.9937 68.8992C37.8629 68.8992 39.3266 70.7575 39.3266 73.1308C39.3266 75.5041 37.8629 77.3625 35.9937 77.3625ZM35.9937 70.5832C35.1003 70.5832 34.3448 71.7496 34.3448 73.1308C34.3448 74.5121 35.1003 75.6785 35.9937 75.6785C36.887 75.6785 37.6426 74.5121 37.6426 73.1308C37.6426 71.7496 36.887 70.5818 35.9937 70.5818V70.5832Z" fill="#606161"/>
<path d="M36.3397 68.9195C36.2243 68.9071 36.1084 68.9008 35.9923 68.9005C34.1218 68.9005 32.6621 70.7589 32.6621 73.1322C32.6621 75.5055 34.1218 77.3625 35.9923 77.3625C36.1084 77.3623 36.2243 77.356 36.3397 77.3436C38.0413 77.126 39.3279 75.3555 39.3279 73.1322C39.3279 70.9089 38.0413 69.1371 36.3397 68.9195ZM35.9923 75.6771C35.0976 75.6771 34.3462 74.5094 34.3462 73.1308C34.3462 71.7523 35.0976 70.5819 35.9923 70.5819C36.1103 70.582 36.2275 70.6007 36.3397 70.6373C37.0722 70.8927 37.6439 71.9293 37.6439 73.1295C37.6439 74.3297 37.0722 75.3649 36.3397 75.6136C36.2289 75.6565 36.1111 75.6785 35.9923 75.6785V75.6771Z" fill="url(#paint33_linear_24_417)"/>
<path d="M36.3397 68.9195C34.6692 69.1371 33.4014 70.9076 33.4014 73.1322C33.4014 75.3568 34.6692 77.126 36.3397 77.3436C38.0413 77.126 39.3279 75.3555 39.3279 73.1322C39.3279 70.9089 38.0413 69.1371 36.3397 68.9195ZM36.6816 75.6771C36.5647 75.6781 36.4487 75.657 36.3397 75.615C36.2287 75.6569 36.111 75.678 35.9923 75.6771C35.0976 75.6771 34.3462 74.5094 34.3462 73.1308C34.3462 71.7523 35.0976 70.5819 35.9923 70.5819C36.1103 70.582 36.2275 70.6007 36.3397 70.6373C36.4499 70.6005 36.5654 70.5818 36.6816 70.5819C37.5574 70.5819 38.3035 71.7428 38.3035 73.1295C38.3035 74.5162 37.5574 75.6785 36.6816 75.6785V75.6771Z" fill="url(#paint34_linear_24_417)"/>
<path d="M48.5913 37.3773C48.4789 37.3765 48.3672 37.3957 48.2616 37.4341C47.9386 37.5544 47.721 37.8476 47.629 38.2828C47.1465 40.5886 48.0724 43.02 48.8684 45.0094C49.8418 44.8956 50.794 44.643 51.6958 44.2593C51.7404 44.2404 51.858 44.1918 51.881 44.1512C51.8985 44.0738 51.8985 43.9935 51.881 43.916C51.7161 42.8618 51.3917 41.8144 51.0782 40.8008L51.0444 40.6886C50.7389 39.7033 50.3213 38.3518 49.5131 37.7287C49.2525 37.514 48.9287 37.3906 48.5913 37.3773Z" stroke="#EC6608" stroke-width="0.621706" stroke-miterlimit="10"/>
<path d="M52.1972 44.7756C52.0821 44.9453 51.9138 45.0718 51.7188 45.1351C50.6868 45.5757 49.5924 45.8525 48.4751 45.9555L48.2453 45.9798L48.1588 45.7636C47.3141 43.6566 46.2667 41.0332 46.7978 38.4653C46.933 37.8193 47.3006 37.353 47.8237 37.1611C48.394 36.9489 49.0847 37.0921 49.6685 37.5463C50.6308 38.2856 51.0849 39.7452 51.4133 40.8129L51.4444 40.9251C51.7674 41.9563 52.0972 43.0308 52.2716 44.1242C52.3223 44.3434 52.2961 44.5735 52.1972 44.7756Z" fill="#EC6608"/>
<path d="M37.0925 67.9801H35.8504V56.015C35.8515 54.9572 36.2722 53.943 37.0202 53.195C37.7682 52.447 38.7823 52.0263 39.8402 52.0253H52.3865V53.2673H39.8402C39.1116 53.268 38.4132 53.5578 37.898 54.0729C37.3829 54.588 37.0932 55.2865 37.0925 56.015V67.9801Z" fill="#EC6608"/>
<path d="M29.4752 74.2553C29.2698 74.2545 29.0652 74.2296 28.8657 74.181C27.7344 73.9107 25.5814 72.8511 25.0138 72.5592L14.9611 72.6173V71.3739L25.3152 71.3157L25.4504 71.3847C25.476 71.3968 28.0183 72.6943 29.1603 72.966C29.3519 73.0239 29.5561 73.0259 29.7488 72.9718C29.9416 72.9177 30.1148 72.8097 30.2483 72.6605C30.4267 71.928 31.3714 68.0869 32.2148 65.5055C32.5594 64.4499 33.1446 63.7134 33.9556 63.3187C35.1855 62.7186 36.4613 63.1714 36.5154 63.1917L36.0883 64.3648C36.0788 64.3648 35.2355 64.0742 34.484 64.4459C33.9921 64.6892 33.6231 65.1771 33.3893 65.8974C32.4743 68.6965 31.4309 73.0349 31.4201 73.0781L31.3971 73.1768L31.343 73.2633C31.1378 73.57 30.8598 73.8211 30.5339 73.9942C30.208 74.1673 29.8443 74.257 29.4752 74.2553Z" fill="#EC6608"/>
<path d="M29.4752 74.2553C29.2698 74.2545 29.0652 74.2296 28.8657 74.181C27.7344 73.9107 25.5814 72.8511 25.0138 72.5592L14.9611 72.6173V71.3739L25.3152 71.3157L25.4504 71.3847C25.476 71.3968 28.0183 72.6943 29.1603 72.966C29.3519 73.0239 29.5561 73.0259 29.7488 72.9718C29.9416 72.9177 30.1148 72.8097 30.2483 72.6605C30.4267 71.928 31.3714 68.0869 32.2148 65.5055C32.5594 64.4499 33.1446 63.7134 33.9556 63.3187C35.1855 62.7186 36.4613 63.1714 36.5154 63.1917L36.0883 64.3648C36.0788 64.3648 35.2355 64.0742 34.484 64.4459C33.9921 64.6892 33.6231 65.1771 33.3893 65.8974C32.4743 68.6965 31.4309 73.0349 31.4201 73.0781L31.3971 73.1768L31.343 73.2633C31.1378 73.57 30.8598 73.8211 30.5339 73.9942C30.208 74.1673 29.8443 74.257 29.4752 74.2553Z" fill="url(#paint35_linear_24_417)"/>
<path d="M51.4255 67.6585C52.1175 67.6585 52.6784 66.7254 52.6784 65.5744C52.6784 64.4234 52.1175 63.4903 51.4255 63.4903C50.7336 63.4903 50.1726 64.4234 50.1726 65.5744C50.1726 66.7254 50.7336 67.6585 51.4255 67.6585Z" fill="#EC6608"/>
<path d="M40.524 67.6585C41.216 67.6585 41.7769 66.7254 41.7769 65.5744C41.7769 64.4234 41.216 63.4903 40.524 63.4903C39.8321 63.4903 39.2712 64.4234 39.2712 65.5744C39.2712 66.7254 39.8321 67.6585 40.524 67.6585Z" fill="#EC6608"/>
<path d="M51.6999 67.6585C52.241 67.6585 52.6797 66.7254 52.6797 65.5744C52.6797 64.4234 52.241 63.4903 51.6999 63.4903C51.1587 63.4903 50.72 64.4234 50.72 65.5744C50.72 66.7254 51.1587 67.6585 51.6999 67.6585Z" fill="url(#paint36_linear_24_417)"/>
<path d="M40.7903 67.6585C41.3382 67.6585 41.7823 66.7254 41.7823 65.5744C41.7823 64.4234 41.3382 63.4903 40.7903 63.4903C40.2424 63.4903 39.7982 64.4234 39.7982 65.5744C39.7982 66.7254 40.2424 67.6585 40.7903 67.6585Z" fill="url(#paint37_linear_24_417)"/>
<path d="M15.1179 72.6429L19.2292 74.3486L29.4171 74.1742L24.8692 72.3807L15.1179 72.6429Z" fill="#606161"/>
<path d="M39.8091 31.909C39.8915 32.5158 39.9794 33.1362 40.2618 33.6782C40.8024 34.7107 42.0337 35.2919 43.1947 35.1824C44.3556 35.0729 45.4071 34.3364 46.0329 33.3538C46.6586 32.3712 46.8844 31.1657 46.8046 30.0033C46.7519 29.2357 46.564 28.4599 46.1288 27.822C45.4193 26.7691 44.1583 26.2326 42.9257 25.9298C42.3175 25.7798 41.6863 25.6703 41.0673 25.7609C38.1751 26.1785 39.5536 30.0358 39.8091 31.909Z" fill="url(#paint38_linear_24_417)"/>
<path d="M38.8387 27.9787C38.7901 27.3132 38.8009 26.6447 38.8711 25.9812C38.8846 25.796 38.9292 25.5757 39.1049 25.5108C39.1738 25.4878 39.2563 25.4946 39.3117 25.4487C39.3628 25.3879 39.3898 25.3104 39.3874 25.2311C39.4484 24.9345 39.6139 24.6698 39.8537 24.485C40.0686 24.2836 40.3396 24.1521 40.6308 24.1079C41.1349 24.0512 41.5958 24.362 42.0715 24.5404C42.6554 24.7594 43.2879 24.7796 43.9177 24.785C44.5475 24.7905 45.1774 24.785 45.7747 24.9675C46.3721 25.15 46.9425 25.5379 47.1709 26.1177C47.192 26.1863 47.225 26.2508 47.2682 26.3082C47.3156 26.3516 47.3682 26.3889 47.425 26.4191C47.7953 26.6556 47.898 27.1462 47.921 27.5854C47.979 28.7546 47.6993 29.9158 47.1155 30.9305C47.0995 30.967 47.0732 30.998 47.0398 31.0197C47.0062 31.0328 46.969 31.0336 46.9349 31.022C46.9008 31.0104 46.8719 30.9871 46.8533 30.9562C46.818 30.8924 46.7989 30.8209 46.7979 30.748C46.7278 30.0829 46.603 29.4248 46.4248 28.7802C46.341 28.4788 46.2113 28.1409 45.9167 28.0355C45.7847 27.9997 45.6472 27.9887 45.5112 28.0031C43.9488 28.0612 42.3837 27.6936 40.8295 27.8598C40.3551 27.9111 39.8212 28.0598 39.6131 28.4883C39.5023 28.7167 39.5117 28.9721 39.5036 29.2181C39.4955 29.4641 39.4887 29.8384 39.2712 29.4884C39.0063 29.0491 38.89 28.4788 38.8387 27.9787Z" fill="#606161"/>
<path d="M37.0925 67.9801H35.8504V56.015C35.8515 54.9572 36.2722 53.943 37.0202 53.195C37.7682 52.447 38.7823 52.0263 39.8402 52.0253H52.3865V53.2673H39.8402C39.1116 53.268 38.4132 53.5578 37.898 54.0729C37.3829 54.588 37.0932 55.2865 37.0925 56.015V67.9801Z" fill="url(#paint39_linear_24_417)"/>
<path d="M51.7188 45.1351C51.7188 45.1351 53.3204 51.363 51.5715 51.7712C49.8226 52.1793 40.5227 52.005 40.5227 52.005C40.5227 52.005 41.2525 50.2696 42.8852 50.2115C44.5178 50.1534 48.7724 49.6141 48.7724 49.6141L48.5157 45.6676L51.7188 45.1351Z" fill="url(#paint40_linear_24_417)"/>
<path d="M67.3953 20.4399C67.3953 20.4399 70.616 26.1853 69.6834 34.5229C68.7508 42.8605 59.2468 41.1184 59.2468 41.1184L58.4359 37.1543C58.4359 37.1543 63.9772 36.8043 65.0828 35.4054C66.1883 34.0066 65.6653 25.9609 65.6653 25.9609L67.3953 20.4399Z" fill="#EC6608"/>
<path d="M67.3953 20.4399C67.3953 20.4399 70.616 26.1853 69.6834 34.5229C68.7508 42.8605 59.2468 41.1184 59.2468 41.1184L58.4359 37.1543C58.4359 37.1543 63.9772 36.8043 65.0828 35.4054C66.1883 34.0066 65.6653 25.9609 65.6653 25.9609L67.3953 20.4399Z" fill="url(#paint41_linear_24_417)"/>
<defs>
<linearGradient id="paint0_linear_24_417" x1="45.7585" y1="36.6907" x2="47.8602" y2="36.6907" gradientUnits="userSpaceOnUse">
<stop stop-color="#E5C6D6"/>
<stop offset="0.42" stop-color="#EAD4D0"/>
<stop offset="1" stop-color="#F0E9CB"/>
</linearGradient>
<linearGradient id="paint1_linear_24_417" x1="59.0549" y1="34.7689" x2="54.4056" y2="30.1196" gradientUnits="userSpaceOnUse">
<stop stop-color="white" stop-opacity="0"/>
<stop offset="0.95" stop-color="white"/>
</linearGradient>
<linearGradient id="paint2_linear_24_417" x1="65.1017" y1="13.3159" x2="64.3448" y2="13.3159" gradientUnits="userSpaceOnUse">
<stop stop-color="#E5C6D6"/>
<stop offset="0.42" stop-color="#EAD4D0"/>
<stop offset="1" stop-color="#F0E9CB"/>
</linearGradient>
<linearGradient id="paint3_linear_24_417" x1="58.936" y1="12.9253" x2="59.6929" y2="12.9253" gradientUnits="userSpaceOnUse">
<stop stop-color="#E5C6D6"/>
<stop offset="0.42" stop-color="#EAD4D0"/>
<stop offset="1" stop-color="#F0E9CB"/>
</linearGradient>
<linearGradient id="paint4_linear_24_417" x1="74.4624" y1="33.443" x2="56.1843" y2="31.6414" gradientUnits="userSpaceOnUse">
<stop stop-color="white" stop-opacity="0"/>
<stop offset="0.95" stop-color="white"/>
</linearGradient>
<linearGradient id="paint5_linear_24_417" x1="60.2686" y1="52.0793" x2="65.4801" y2="11.9279" gradientUnits="userSpaceOnUse">
<stop offset="0.26" stop-color="#010101" stop-opacity="0"/>
<stop offset="0.99" stop-color="#010101"/>
</linearGradient>
<linearGradient id="paint6_linear_24_417" x1="63.1717" y1="7.19886" x2="62.4338" y2="9.15724" gradientUnits="userSpaceOnUse">
<stop stop-color="#010101" stop-opacity="0"/>
<stop offset="0.95" stop-color="#010101"/>
</linearGradient>
<linearGradient id="paint7_linear_24_417" x1="63.9191" y1="16.6191" x2="60.6565" y2="16.6191" gradientUnits="userSpaceOnUse">
<stop stop-color="#E5C6D6"/>
<stop offset="0.42" stop-color="#EAD4D0"/>
<stop offset="1" stop-color="#F0E9CB"/>
</linearGradient>
<linearGradient id="paint8_linear_24_417" x1="62.6122" y1="17.7773" x2="61.1052" y2="10.3358" gradientUnits="userSpaceOnUse">
<stop offset="0.12" stop-color="#010101" stop-opacity="0"/>
<stop offset="0.95" stop-color="#010101"/>
</linearGradient>
<linearGradient id="paint9_linear_24_417" x1="64.6057" y1="12.555" x2="59.4401" y2="12.555" gradientUnits="userSpaceOnUse">
<stop stop-color="#E5C6D6"/>
<stop offset="0.42" stop-color="#EAD4D0"/>
<stop offset="1" stop-color="#F0E9CB"/>
</linearGradient>
<linearGradient id="paint10_linear_24_417" x1="63.2839" y1="70.8224" x2="59.7726" y2="35.3946" gradientUnits="userSpaceOnUse">
<stop offset="0.12" stop-color="#010101" stop-opacity="0"/>
<stop offset="0.95" stop-color="#010101"/>
</linearGradient>
<linearGradient id="paint11_linear_24_417" x1="64.8814" y1="23.7241" x2="62.2297" y2="22.8402" gradientUnits="userSpaceOnUse">
<stop stop-color="white" stop-opacity="0"/>
<stop offset="0.95" stop-color="white"/>
</linearGradient>
<linearGradient id="paint12_linear_24_417" x1="57.8358" y1="22.6469" x2="60.7687" y2="22.847" gradientUnits="userSpaceOnUse">
<stop stop-color="white" stop-opacity="0"/>
<stop offset="0.11" stop-color="white" stop-opacity="0.18"/>
<stop offset="0.29" stop-color="white" stop-opacity="0.42"/>
<stop offset="0.45" stop-color="white" stop-opacity="0.63"/>
<stop offset="0.6" stop-color="white" stop-opacity="0.79"/>
<stop offset="0.74" stop-color="white" stop-opacity="0.9"/>
<stop offset="0.86" stop-color="white" stop-opacity="0.98"/>
<stop offset="0.95" stop-color="white"/>
</linearGradient>
<linearGradient id="paint13_linear_24_417" x1="58.9684" y1="12.9524" x2="60.4997" y2="12.6347" gradientUnits="userSpaceOnUse">
<stop offset="0.12" stop-color="#010101" stop-opacity="0"/>
<stop offset="0.95" stop-color="#010101"/>
</linearGradient>
<linearGradient id="paint14_linear_24_417" x1="65.0247" y1="13.3281" x2="63.4934" y2="13.0105" gradientUnits="userSpaceOnUse">
<stop offset="0.12" stop-color="#010101" stop-opacity="0"/>
<stop offset="0.95" stop-color="#010101"/>
</linearGradient>
<linearGradient id="paint15_linear_24_417" x1="-42.1913" y1="64.8324" x2="-42.3657" y2="59.7601" gradientUnits="userSpaceOnUse">
<stop offset="0.12" stop-color="#010101" stop-opacity="0"/>
<stop offset="0.95" stop-color="#010101"/>
</linearGradient>
<linearGradient id="paint16_linear_24_417" x1="-26.1986" y1="69.4046" x2="-25.9796" y2="74.1702" gradientUnits="userSpaceOnUse">
<stop offset="0.12" stop-color="#010101" stop-opacity="0"/>
<stop offset="0.95" stop-color="#010101"/>
</linearGradient>
<linearGradient id="paint17_linear_24_417" x1="-23.6091" y1="69.1411" x2="-25.1539" y2="71.3563" gradientUnits="userSpaceOnUse">
<stop offset="0.12" stop-color="#010101" stop-opacity="0"/>
<stop offset="0.95" stop-color="#010101"/>
</linearGradient>
<linearGradient id="paint18_linear_24_417" x1="-20.4816" y1="70.8265" x2="-22.3183" y2="72.0064" gradientUnits="userSpaceOnUse">
<stop offset="0.12" stop-color="#010101" stop-opacity="0"/>
<stop offset="0.95" stop-color="#010101"/>
</linearGradient>
<linearGradient id="paint19_linear_24_417" x1="-27.7299" y1="71.4928" x2="-30.1789" y2="72.3672" gradientUnits="userSpaceOnUse">
<stop offset="0.12" stop-color="#010101" stop-opacity="0"/>
<stop offset="0.95" stop-color="#010101"/>
</linearGradient>
<linearGradient id="paint20_linear_24_417" x1="-46.1865" y1="54.8675" x2="-1.4709" y2="81.5806" gradientUnits="userSpaceOnUse">
<stop offset="0.12" stop-color="#010101" stop-opacity="0"/>
<stop offset="0.95" stop-color="#010101"/>
</linearGradient>
<linearGradient id="paint21_linear_24_417" x1="-44.0821" y1="55.9839" x2="-49.7964" y2="52.3699" gradientUnits="userSpaceOnUse">
<stop offset="0.12" stop-color="#010101" stop-opacity="0"/>
<stop offset="0.95" stop-color="#010101"/>
</linearGradient>
<linearGradient id="paint22_linear_24_417" x1="27.7277" y1="47.6098" x2="37.1925" y2="47.6098" gradientUnits="userSpaceOnUse">
<stop stop-color="#E5C6D6"/>
<stop offset="0.42" stop-color="#EAD4D0"/>
<stop offset="1" stop-color="#F0E9CB"/>
</linearGradient>
<linearGradient id="paint23_linear_24_417" x1="-26.231" y1="50.3575" x2="-58.33" y2="50.3575" gradientUnits="userSpaceOnUse">
<stop offset="0.12" stop-color="#010101" stop-opacity="0"/>
<stop offset="0.95" stop-color="#010101"/>
</linearGradient>
<linearGradient id="paint24_linear_24_417" x1="-26.231" y1="49.7614" x2="-53.3915" y2="49.7614" gradientUnits="userSpaceOnUse">
<stop offset="0.12" stop-color="#010101" stop-opacity="0"/>
<stop offset="0.95" stop-color="#010101"/>
</linearGradient>
<linearGradient id="paint25_linear_24_417" x1="53.8704" y1="39.856" x2="59.2847" y2="39.856" gradientUnits="userSpaceOnUse">
<stop stop-color="#E5C6D6"/>
<stop offset="0.42" stop-color="#EAD4D0"/>
<stop offset="1" stop-color="#F0E9CB"/>
</linearGradient>
<linearGradient id="paint26_linear_24_417" x1="-38.7598" y1="39.8668" x2="-71.6413" y2="70.6494" gradientUnits="userSpaceOnUse">
<stop offset="0.12" stop-color="#010101" stop-opacity="0"/>
<stop offset="0.95" stop-color="#010101"/>
</linearGradient>
<linearGradient id="paint27_linear_24_417" x1="-42.7806" y1="44.6283" x2="-55.8243" y2="56.8394" gradientUnits="userSpaceOnUse">
<stop offset="0.12" stop-color="#010101" stop-opacity="0"/>
<stop offset="0.95" stop-color="#010101"/>
</linearGradient>
<linearGradient id="paint28_linear_24_417" x1="41.3647" y1="35.3027" x2="45.3558" y2="35.3027" gradientUnits="userSpaceOnUse">
<stop stop-color="#E5C6D6"/>
<stop offset="0.42" stop-color="#EAD4D0"/>
<stop offset="1" stop-color="#F0E9CB"/>
</linearGradient>
<linearGradient id="paint29_linear_24_417" x1="-42.9279" y1="37.4422" x2="-50.856" y2="25.2568" gradientUnits="userSpaceOnUse">
<stop offset="0.12" stop-color="#010101" stop-opacity="0"/>
<stop offset="0.95" stop-color="#010101"/>
</linearGradient>
<linearGradient id="paint30_linear_24_417" x1="-32.2359" y1="55.3865" x2="-40.5478" y2="64.0999" gradientUnits="userSpaceOnUse">
<stop offset="0.12" stop-color="#010101" stop-opacity="0"/>
<stop offset="0.95" stop-color="#010101"/>
</linearGradient>
<linearGradient id="paint31_linear_24_417" x1="-24.1415" y1="55.5055" x2="-30.933" y2="63.1362" gradientUnits="userSpaceOnUse">
<stop offset="0.12" stop-color="#010101" stop-opacity="0"/>
<stop offset="0.95" stop-color="#010101"/>
</linearGradient>
<linearGradient id="paint32_linear_24_417" x1="-46.3959" y1="53.4646" x2="-56.2784" y2="72.9659" gradientUnits="userSpaceOnUse">
<stop offset="0.12" stop-color="#010101" stop-opacity="0"/>
<stop offset="0.95" stop-color="#010101"/>
</linearGradient>
<linearGradient id="paint33_linear_24_417" x1="-36.1783" y1="69.652" x2="-37.884" y2="75.3352" gradientUnits="userSpaceOnUse">
<stop offset="0.12" stop-color="#010101" stop-opacity="0"/>
<stop offset="0.95" stop-color="#010101"/>
</linearGradient>
<linearGradient id="paint34_linear_24_417" x1="-36.5703" y1="69.729" x2="-38.234" y2="75.2771" gradientUnits="userSpaceOnUse">
<stop offset="0.12" stop-color="#010101" stop-opacity="0"/>
<stop offset="0.95" stop-color="#010101"/>
</linearGradient>
<linearGradient id="paint35_linear_24_417" x1="-32.1102" y1="61.0211" x2="-25.289" y2="70.99" gradientUnits="userSpaceOnUse">
<stop offset="0.12" stop-color="#010101" stop-opacity="0"/>
<stop offset="0.95" stop-color="#010101"/>
</linearGradient>
<linearGradient id="paint36_linear_24_417" x1="-50.6398" y1="63.4944" x2="-57.4934" y2="69.106" gradientUnits="userSpaceOnUse">
<stop offset="0.12" stop-color="#010101" stop-opacity="0"/>
<stop offset="0.95" stop-color="#010101"/>
</linearGradient>
<linearGradient id="paint37_linear_24_417" x1="-39.5639" y1="63.3079" x2="-47.9407" y2="70.3223" gradientUnits="userSpaceOnUse">
<stop offset="0.12" stop-color="#010101" stop-opacity="0"/>
<stop offset="0.95" stop-color="#010101"/>
</linearGradient>
<linearGradient id="paint38_linear_24_417" x1="39.2576" y1="30.4615" x2="46.8195" y2="30.4615" gradientUnits="userSpaceOnUse">
<stop stop-color="#E5C6D6"/>
<stop offset="0.42" stop-color="#EAD4D0"/>
<stop offset="1" stop-color="#F0E9CB"/>
</linearGradient>
<linearGradient id="paint39_linear_24_417" x1="-29.345" y1="49.3533" x2="-62.4603" y2="71.3914" gradientUnits="userSpaceOnUse">
<stop offset="0.12" stop-color="#010101" stop-opacity="0"/>
<stop offset="0.95" stop-color="#010101"/>
</linearGradient>
<linearGradient id="paint40_linear_24_417" x1="40.5227" y1="48.5883" x2="52.3892" y2="48.5883" gradientUnits="userSpaceOnUse">
<stop stop-color="#E5C6D6"/>
<stop offset="0.42" stop-color="#EAD4D0"/>
<stop offset="1" stop-color="#F0E9CB"/>
</linearGradient>
<linearGradient id="paint41_linear_24_417" x1="54.8814" y1="26.4948" x2="68.7765" y2="33.5484" gradientUnits="userSpaceOnUse">
<stop stop-color="white" stop-opacity="0"/>
<stop offset="0.95" stop-color="white"/>
</linearGradient>
</defs>
</svg>
